<mxfile host="65bd71144e" scale="2" border="0">
    <diagram name="Blandr" id="NntgLVhMGGUIfjaVIJaM">
        <mxGraphModel dx="2093" dy="797" grid="1" gridSize="10" guides="1" tooltips="1" connect="1" arrows="1" fold="1" page="0" pageScale="1" pageWidth="850" pageHeight="1100" math="0" shadow="0">
            <root>
                <mxCell id="Riv2Iqz7e4M96-No_ZCK-0"/>
                <mxCell id="Riv2Iqz7e4M96-No_ZCK-1" parent="Riv2Iqz7e4M96-No_ZCK-0"/>
                <mxCell id="Riv2Iqz7e4M96-No_ZCK-2" value="Pool" style="swimlane;childLayout=stackLayout;resizeParent=1;resizeParentMax=0;horizontal=1;startSize=20;horizontalStack=0;html=1;fillColor=#333333;strokeColor=#CCCCCC;strokeWidth=2;shadow=1;swimlaneLine=1;fontColor=#FFFFFF;" vertex="1" parent="Riv2Iqz7e4M96-No_ZCK-1">
                    <mxGeometry x="-180" y="80" width="1220" height="680" as="geometry">
                        <mxRectangle x="-180" y="80" width="60" height="30" as="alternateBounds"/>
                    </mxGeometry>
                </mxCell>
                <mxCell id="Riv2Iqz7e4M96-No_ZCK-3" value="" style="rounded=0;whiteSpace=wrap;html=1;fillColor=#333333;strokeColor=#CCCCCC;strokeWidth=2;shadow=1;swimlaneLine=1;fontColor=#FFFFFF;" vertex="1" parent="Riv2Iqz7e4M96-No_ZCK-2">
                    <mxGeometry y="20" width="1220" height="20" as="geometry"/>
                </mxCell>
                <mxCell id="Riv2Iqz7e4M96-No_ZCK-4" value="Task 1" style="swimlane;startSize=20;horizontal=0;html=1;fillColor=#333333;strokeColor=#CCCCCC;strokeWidth=2;shadow=1;swimlaneLine=1;fontColor=#FFFFFF;" vertex="1" parent="Riv2Iqz7e4M96-No_ZCK-2">
                    <mxGeometry y="40" width="1220" height="80" as="geometry">
                        <mxRectangle y="20" width="1210" height="30" as="alternateBounds"/>
                    </mxGeometry>
                </mxCell>
                <mxCell id="Riv2Iqz7e4M96-No_ZCK-5" value="Task 2" style="swimlane;startSize=20;horizontal=0;html=1;fillColor=#333333;strokeColor=#CCCCCC;strokeWidth=2;shadow=1;swimlaneLine=1;fontColor=#FFFFFF;" vertex="1" parent="Riv2Iqz7e4M96-No_ZCK-2">
                    <mxGeometry y="120" width="1220" height="80" as="geometry"/>
                </mxCell>
                <mxCell id="Riv2Iqz7e4M96-No_ZCK-6" value="Task 3" style="swimlane;startSize=20;horizontal=0;html=1;fillColor=#333333;strokeColor=#CCCCCC;strokeWidth=2;shadow=1;swimlaneLine=1;fontColor=#FFFFFF;" vertex="1" parent="Riv2Iqz7e4M96-No_ZCK-2">
                    <mxGeometry y="200" width="1220" height="80" as="geometry"/>
                </mxCell>
                <mxCell id="Riv2Iqz7e4M96-No_ZCK-7" value="Task 4" style="swimlane;startSize=20;horizontal=0;html=1;fillColor=#333333;strokeColor=#CCCCCC;strokeWidth=2;shadow=1;swimlaneLine=1;fontColor=#FFFFFF;" vertex="1" parent="Riv2Iqz7e4M96-No_ZCK-2">
                    <mxGeometry y="280" width="1220" height="80" as="geometry"/>
                </mxCell>
                <mxCell id="Riv2Iqz7e4M96-No_ZCK-8" value="Task 5" style="swimlane;startSize=20;horizontal=0;html=1;fillColor=#333333;strokeColor=#CCCCCC;strokeWidth=2;shadow=1;swimlaneLine=1;fontColor=#FFFFFF;" vertex="1" parent="Riv2Iqz7e4M96-No_ZCK-2">
                    <mxGeometry y="360" width="1220" height="80" as="geometry"/>
                </mxCell>
                <mxCell id="Riv2Iqz7e4M96-No_ZCK-9" value="Task 6" style="swimlane;startSize=20;horizontal=0;html=1;fillColor=#333333;strokeColor=#CCCCCC;strokeWidth=2;shadow=1;swimlaneLine=1;fontColor=#FFFFFF;" vertex="1" parent="Riv2Iqz7e4M96-No_ZCK-2">
                    <mxGeometry y="440" width="1220" height="80" as="geometry"/>
                </mxCell>
                <mxCell id="Riv2Iqz7e4M96-No_ZCK-10" value="Task 7" style="swimlane;startSize=20;horizontal=0;html=1;fillColor=#333333;strokeColor=#CCCCCC;strokeWidth=2;shadow=1;swimlaneLine=1;fontColor=#FFFFFF;" vertex="1" parent="Riv2Iqz7e4M96-No_ZCK-2">
                    <mxGeometry y="520" width="1220" height="80" as="geometry"/>
                </mxCell>
                <mxCell id="Riv2Iqz7e4M96-No_ZCK-11" value="Task 8" style="swimlane;startSize=20;horizontal=0;html=1;fillColor=#333333;strokeColor=#CCCCCC;strokeWidth=2;shadow=1;swimlaneLine=1;fontColor=#FFFFFF;" vertex="1" parent="Riv2Iqz7e4M96-No_ZCK-2">
                    <mxGeometry y="600" width="1220" height="80" as="geometry"/>
                </mxCell>
                <mxCell id="Riv2Iqz7e4M96-No_ZCK-12" value="Template Gantt Chart" style="swimlane;childLayout=stackLayout;resizeParent=1;resizeParentMax=0;startSize=20;html=1;gradientColor=none;swimlaneFillColor=none;swimlaneLine=1;glass=0;rounded=0;shadow=1;fillColor=#333333;strokeColor=#CCCCCC;strokeWidth=2;fontColor=#FFFFFF;" vertex="1" parent="Riv2Iqz7e4M96-No_ZCK-1">
                    <mxGeometry x="-160" y="80" width="1200" height="680" as="geometry"/>
                </mxCell>
                <mxCell id="Riv2Iqz7e4M96-No_ZCK-13" value="Time 1" style="swimlane;startSize=20;html=1;fillColor=#333333;strokeColor=#CCCCCC;strokeWidth=2;shadow=1;swimlaneLine=1;fontColor=#FFFFFF;" vertex="1" parent="Riv2Iqz7e4M96-No_ZCK-12">
                    <mxGeometry y="20" width="80" height="660" as="geometry"/>
                </mxCell>
                <mxCell id="Riv2Iqz7e4M96-No_ZCK-14" value="&lt;span style=&quot;&quot;&gt;&lt;font style=&quot;color: rgb(255, 255, 255);&quot;&gt;Time 2&lt;/font&gt;&lt;/span&gt;" style="swimlane;startSize=20;html=1;fillColor=#333333;strokeColor=#CCCCCC;strokeWidth=2;shadow=1;swimlaneLine=1;fontColor=#FFFFFF;" vertex="1" parent="Riv2Iqz7e4M96-No_ZCK-12">
                    <mxGeometry x="80" y="20" width="80" height="660" as="geometry"/>
                </mxCell>
                <mxCell id="Riv2Iqz7e4M96-No_ZCK-15" value="&lt;span style=&quot;&quot;&gt;&lt;font style=&quot;color: rgb(255, 255, 255);&quot;&gt;Time 3&lt;/font&gt;&lt;/span&gt;" style="swimlane;startSize=20;html=1;fillColor=#333333;strokeColor=#CCCCCC;strokeWidth=2;shadow=1;swimlaneLine=1;fontColor=#FFFFFF;" vertex="1" parent="Riv2Iqz7e4M96-No_ZCK-12">
                    <mxGeometry x="160" y="20" width="80" height="660" as="geometry"/>
                </mxCell>
                <mxCell id="Riv2Iqz7e4M96-No_ZCK-16" value="&lt;span style=&quot;&quot;&gt;&lt;font style=&quot;color: rgb(255, 255, 255);&quot;&gt;Time 4&lt;/font&gt;&lt;/span&gt;" style="swimlane;startSize=20;html=1;fillColor=#333333;strokeColor=#CCCCCC;strokeWidth=2;shadow=1;swimlaneLine=1;fontColor=#FFFFFF;" vertex="1" parent="Riv2Iqz7e4M96-No_ZCK-12">
                    <mxGeometry x="240" y="20" width="80" height="660" as="geometry"/>
                </mxCell>
                <mxCell id="Riv2Iqz7e4M96-No_ZCK-17" value="&lt;span style=&quot;&quot;&gt;&lt;font style=&quot;color: rgb(255, 255, 255);&quot;&gt;Time 5&lt;/font&gt;&lt;/span&gt;" style="swimlane;startSize=20;html=1;fillColor=#333333;strokeColor=#CCCCCC;strokeWidth=2;shadow=1;swimlaneLine=1;fontColor=#FFFFFF;" vertex="1" parent="Riv2Iqz7e4M96-No_ZCK-12">
                    <mxGeometry x="320" y="20" width="80" height="660" as="geometry"/>
                </mxCell>
                <mxCell id="Riv2Iqz7e4M96-No_ZCK-18" value="&lt;span style=&quot;&quot;&gt;&lt;font style=&quot;color: rgb(255, 255, 255);&quot;&gt;Time 6&lt;/font&gt;&lt;/span&gt;" style="swimlane;startSize=20;html=1;fillColor=#333333;strokeColor=#CCCCCC;strokeWidth=2;shadow=1;swimlaneLine=1;fontColor=#FFFFFF;" vertex="1" parent="Riv2Iqz7e4M96-No_ZCK-12">
                    <mxGeometry x="400" y="20" width="80" height="660" as="geometry"/>
                </mxCell>
                <mxCell id="Riv2Iqz7e4M96-No_ZCK-19" value="&lt;span style=&quot;&quot;&gt;&lt;font style=&quot;color: rgb(255, 255, 255);&quot;&gt;Time 7&lt;/font&gt;&lt;/span&gt;" style="swimlane;startSize=20;html=1;fillColor=#333333;strokeColor=#CCCCCC;strokeWidth=2;shadow=1;swimlaneLine=1;fontColor=#FFFFFF;" vertex="1" parent="Riv2Iqz7e4M96-No_ZCK-12">
                    <mxGeometry x="480" y="20" width="80" height="660" as="geometry"/>
                </mxCell>
                <mxCell id="Riv2Iqz7e4M96-No_ZCK-20" value="&lt;span style=&quot;&quot;&gt;&lt;font style=&quot;color: rgb(255, 255, 255);&quot;&gt;Time 8&lt;/font&gt;&lt;/span&gt;" style="swimlane;startSize=20;html=1;fillColor=#333333;strokeColor=#CCCCCC;strokeWidth=2;shadow=1;swimlaneLine=1;fontColor=#FFFFFF;" vertex="1" parent="Riv2Iqz7e4M96-No_ZCK-12">
                    <mxGeometry x="560" y="20" width="80" height="660" as="geometry"/>
                </mxCell>
                <mxCell id="Riv2Iqz7e4M96-No_ZCK-21" value="&lt;span style=&quot;&quot;&gt;&lt;font style=&quot;color: rgb(255, 255, 255);&quot;&gt;Time 9&lt;/font&gt;&lt;/span&gt;" style="swimlane;startSize=20;html=1;fillColor=#333333;strokeColor=#CCCCCC;strokeWidth=2;shadow=1;swimlaneLine=1;fontColor=#FFFFFF;" vertex="1" parent="Riv2Iqz7e4M96-No_ZCK-12">
                    <mxGeometry x="640" y="20" width="80" height="660" as="geometry"/>
                </mxCell>
                <mxCell id="Riv2Iqz7e4M96-No_ZCK-22" value="&lt;span style=&quot;&quot;&gt;&lt;font style=&quot;color: rgb(255, 255, 255);&quot;&gt;Time 10&lt;/font&gt;&lt;/span&gt;" style="swimlane;startSize=20;html=1;fillColor=#333333;strokeColor=#CCCCCC;strokeWidth=2;shadow=1;swimlaneLine=1;fontColor=#FFFFFF;" vertex="1" parent="Riv2Iqz7e4M96-No_ZCK-12">
                    <mxGeometry x="720" y="20" width="80" height="660" as="geometry"/>
                </mxCell>
                <mxCell id="Riv2Iqz7e4M96-No_ZCK-23" value="&lt;span style=&quot;&quot;&gt;&lt;font style=&quot;color: rgb(255, 255, 255);&quot;&gt;Time 11&lt;/font&gt;&lt;/span&gt;" style="swimlane;startSize=20;html=1;fillColor=#333333;strokeColor=#CCCCCC;strokeWidth=2;shadow=1;swimlaneLine=1;fontColor=#FFFFFF;" vertex="1" parent="Riv2Iqz7e4M96-No_ZCK-12">
                    <mxGeometry x="800" y="20" width="80" height="660" as="geometry"/>
                </mxCell>
                <mxCell id="Riv2Iqz7e4M96-No_ZCK-24" value="&lt;span style=&quot;&quot;&gt;&lt;font style=&quot;color: rgb(255, 255, 255);&quot;&gt;Time 12&lt;/font&gt;&lt;/span&gt;" style="swimlane;startSize=20;html=1;fillColor=#333333;strokeColor=#CCCCCC;strokeWidth=2;shadow=1;swimlaneLine=1;fontColor=#FFFFFF;" vertex="1" parent="Riv2Iqz7e4M96-No_ZCK-12">
                    <mxGeometry x="880" y="20" width="80" height="660" as="geometry"/>
                </mxCell>
                <mxCell id="Riv2Iqz7e4M96-No_ZCK-25" value="&lt;span style=&quot;&quot;&gt;&lt;font style=&quot;color: rgb(255, 255, 255);&quot;&gt;Time 13&lt;/font&gt;&lt;/span&gt;" style="swimlane;startSize=20;html=1;fillColor=#333333;strokeColor=#CCCCCC;strokeWidth=2;shadow=1;swimlaneLine=1;fontColor=#FFFFFF;" vertex="1" parent="Riv2Iqz7e4M96-No_ZCK-12">
                    <mxGeometry x="960" y="20" width="80" height="660" as="geometry"/>
                </mxCell>
                <mxCell id="Riv2Iqz7e4M96-No_ZCK-26" value="&lt;span style=&quot;&quot;&gt;&lt;font style=&quot;color: rgb(255, 255, 255);&quot;&gt;Time 14&lt;/font&gt;&lt;/span&gt;" style="swimlane;startSize=20;html=1;fillColor=#333333;strokeColor=#CCCCCC;strokeWidth=2;shadow=1;swimlaneLine=1;fontColor=#FFFFFF;" vertex="1" parent="Riv2Iqz7e4M96-No_ZCK-12">
                    <mxGeometry x="1040" y="20" width="80" height="660" as="geometry"/>
                </mxCell>
                <mxCell id="Riv2Iqz7e4M96-No_ZCK-27" value="&lt;span style=&quot;&quot;&gt;&lt;font style=&quot;color: rgb(255, 255, 255);&quot;&gt;Time 15&lt;/font&gt;&lt;/span&gt;" style="swimlane;startSize=20;html=1;fillColor=#333333;strokeColor=#CCCCCC;strokeWidth=2;shadow=1;swimlaneLine=1;fontColor=#FFFFFF;" vertex="1" parent="Riv2Iqz7e4M96-No_ZCK-12">
                    <mxGeometry x="1120" y="20" width="80" height="660" as="geometry"/>
                </mxCell>
                <mxCell id="Riv2Iqz7e4M96-No_ZCK-28" value="" style="rounded=0;whiteSpace=wrap;html=1;fillColor=#333333;strokeColor=#CCCCCC;strokeWidth=2;shadow=1;swimlaneLine=1;fontColor=#FFFFFF;" vertex="1" parent="Riv2Iqz7e4M96-No_ZCK-1">
                    <mxGeometry x="-120" y="140" width="641" height="40" as="geometry"/>
                </mxCell>
                <mxCell id="Riv2Iqz7e4M96-No_ZCK-29" value="" style="rounded=0;whiteSpace=wrap;html=1;fillColor=#333333;strokeColor=#CCCCCC;strokeWidth=2;shadow=1;swimlaneLine=1;fontColor=#FFFFFF;" vertex="1" parent="Riv2Iqz7e4M96-No_ZCK-1">
                    <mxGeometry x="-40" y="220" width="641" height="40" as="geometry"/>
                </mxCell>
                <mxCell id="Riv2Iqz7e4M96-No_ZCK-30" value="" style="rounded=0;whiteSpace=wrap;html=1;fillColor=#333333;strokeColor=#CCCCCC;strokeWidth=2;shadow=1;swimlaneLine=1;fontColor=#FFFFFF;" vertex="1" parent="Riv2Iqz7e4M96-No_ZCK-1">
                    <mxGeometry x="40" y="300" width="561" height="40" as="geometry"/>
                </mxCell>
                <mxCell id="Riv2Iqz7e4M96-No_ZCK-31" value="" style="rounded=0;whiteSpace=wrap;html=1;fillColor=#333333;strokeColor=#CCCCCC;strokeWidth=2;shadow=1;swimlaneLine=1;fontColor=#FFFFFF;" vertex="1" parent="Riv2Iqz7e4M96-No_ZCK-1">
                    <mxGeometry x="40" y="380" width="880" height="40" as="geometry"/>
                </mxCell>
                <mxCell id="Riv2Iqz7e4M96-No_ZCK-32" value="" style="rounded=0;whiteSpace=wrap;html=1;fillColor=#333333;strokeColor=#CCCCCC;strokeWidth=2;shadow=1;swimlaneLine=1;fontColor=#FFFFFF;" vertex="1" parent="Riv2Iqz7e4M96-No_ZCK-1">
                    <mxGeometry x="80" y="460" width="880" height="40" as="geometry"/>
                </mxCell>
                <mxCell id="Riv2Iqz7e4M96-No_ZCK-33" value="" style="rounded=0;whiteSpace=wrap;html=1;fillColor=#333333;strokeColor=#CCCCCC;strokeWidth=2;shadow=1;swimlaneLine=1;fontColor=#FFFFFF;" vertex="1" parent="Riv2Iqz7e4M96-No_ZCK-1">
                    <mxGeometry x="120" y="540" width="280" height="40" as="geometry"/>
                </mxCell>
                <mxCell id="Riv2Iqz7e4M96-No_ZCK-34" value="" style="rounded=0;whiteSpace=wrap;html=1;fillColor=#333333;strokeColor=#CCCCCC;strokeWidth=2;shadow=1;swimlaneLine=1;fontColor=#FFFFFF;" vertex="1" parent="Riv2Iqz7e4M96-No_ZCK-1">
                    <mxGeometry x="760" y="620" width="280" height="40" as="geometry"/>
                </mxCell>
                <mxCell id="Riv2Iqz7e4M96-No_ZCK-35" value="" style="rounded=0;whiteSpace=wrap;html=1;fillColor=#333333;strokeColor=#CCCCCC;strokeWidth=2;shadow=1;swimlaneLine=1;fontColor=#FFFFFF;" vertex="1" parent="Riv2Iqz7e4M96-No_ZCK-1">
                    <mxGeometry x="840" y="700" width="200" height="40" as="geometry"/>
                </mxCell>
                <mxCell id="Riv2Iqz7e4M96-No_ZCK-36" value="" style="rounded=0;whiteSpace=wrap;html=1;strokeWidth=2;shadow=1;swimlaneLine=1;glass=0;strokeColor=#CCCCCC;fillColor=#333333;" vertex="1" parent="Riv2Iqz7e4M96-No_ZCK-1">
                    <mxGeometry x="400" y="540" width="280" height="40" as="geometry"/>
                </mxCell>
                <mxCell id="Riv2Iqz7e4M96-No_ZCK-37" value="" style="rounded=0;whiteSpace=wrap;html=1;strokeWidth=2;shadow=1;swimlaneLine=1;glass=0;gradientColor=none;fillStyle=hatch;fillColor=#CCCCCC;strokeColor=#CCCCCC;" vertex="1" parent="Riv2Iqz7e4M96-No_ZCK-1">
                    <mxGeometry x="400" y="540" width="280" height="40" as="geometry"/>
                </mxCell>
                <mxCell id="Riv2Iqz7e4M96-No_ZCK-38" value="" style="rounded=0;whiteSpace=wrap;html=1;fillColor=#333333;strokeColor=#CCCCCC;strokeWidth=2;shadow=1;swimlaneLine=1;fontColor=#FFFFFF;" vertex="1" parent="Riv2Iqz7e4M96-No_ZCK-1">
                    <mxGeometry x="680" y="540" width="280" height="40" as="geometry"/>
                </mxCell>
            </root>
        </mxGraphModel>
    </diagram>
    <diagram name="Rose" id="ILMmrTCjv-d_GCT8Zb-T">
        <mxGraphModel dx="2093" dy="797" grid="1" gridSize="10" guides="1" tooltips="1" connect="1" arrows="1" fold="1" page="0" pageScale="1" pageWidth="850" pageHeight="1100" math="0" shadow="0">
            <root>
                <mxCell id="Bz1eCAJmWakmWkk8XsEl-0"/>
                <mxCell id="Bz1eCAJmWakmWkk8XsEl-1" parent="Bz1eCAJmWakmWkk8XsEl-0"/>
                <mxCell id="Bz1eCAJmWakmWkk8XsEl-2" value="Pool" style="swimlane;childLayout=stackLayout;resizeParent=1;resizeParentMax=0;horizontal=1;startSize=20;horizontalStack=0;html=1;fillColor=#FFCCE6;strokeColor=#FFFFCC;strokeWidth=2;shadow=1;swimlaneLine=1;" vertex="1" parent="Bz1eCAJmWakmWkk8XsEl-1">
                    <mxGeometry x="-180" y="80" width="1220" height="680" as="geometry">
                        <mxRectangle x="-180" y="80" width="60" height="30" as="alternateBounds"/>
                    </mxGeometry>
                </mxCell>
                <mxCell id="Bz1eCAJmWakmWkk8XsEl-3" value="" style="rounded=0;whiteSpace=wrap;html=1;fillColor=#FFCCE6;strokeColor=#FFFFCC;strokeWidth=2;shadow=1;swimlaneLine=1;" vertex="1" parent="Bz1eCAJmWakmWkk8XsEl-2">
                    <mxGeometry y="20" width="1220" height="20" as="geometry"/>
                </mxCell>
                <mxCell id="Bz1eCAJmWakmWkk8XsEl-4" value="Task 1" style="swimlane;startSize=20;horizontal=0;html=1;fillColor=#FFCCE6;strokeColor=#FFFFCC;strokeWidth=2;shadow=1;swimlaneLine=1;" vertex="1" parent="Bz1eCAJmWakmWkk8XsEl-2">
                    <mxGeometry y="40" width="1220" height="80" as="geometry">
                        <mxRectangle y="20" width="1210" height="30" as="alternateBounds"/>
                    </mxGeometry>
                </mxCell>
                <mxCell id="Bz1eCAJmWakmWkk8XsEl-5" value="Task 2" style="swimlane;startSize=20;horizontal=0;html=1;fillColor=#FFCCE6;strokeColor=#FFFFCC;strokeWidth=2;shadow=1;swimlaneLine=1;" vertex="1" parent="Bz1eCAJmWakmWkk8XsEl-2">
                    <mxGeometry y="120" width="1220" height="80" as="geometry"/>
                </mxCell>
                <mxCell id="Bz1eCAJmWakmWkk8XsEl-6" value="Task 3" style="swimlane;startSize=20;horizontal=0;html=1;fillColor=#FFCCE6;strokeColor=#FFFFCC;strokeWidth=2;shadow=1;swimlaneLine=1;" vertex="1" parent="Bz1eCAJmWakmWkk8XsEl-2">
                    <mxGeometry y="200" width="1220" height="80" as="geometry"/>
                </mxCell>
                <mxCell id="Bz1eCAJmWakmWkk8XsEl-7" value="Task 4" style="swimlane;startSize=20;horizontal=0;html=1;fillColor=#FFCCE6;strokeColor=#FFFFCC;strokeWidth=2;shadow=1;swimlaneLine=1;" vertex="1" parent="Bz1eCAJmWakmWkk8XsEl-2">
                    <mxGeometry y="280" width="1220" height="80" as="geometry"/>
                </mxCell>
                <mxCell id="Bz1eCAJmWakmWkk8XsEl-8" value="Task 5" style="swimlane;startSize=20;horizontal=0;html=1;fillColor=#FFCCE6;strokeColor=#FFFFCC;strokeWidth=2;shadow=1;swimlaneLine=1;" vertex="1" parent="Bz1eCAJmWakmWkk8XsEl-2">
                    <mxGeometry y="360" width="1220" height="80" as="geometry"/>
                </mxCell>
                <mxCell id="Bz1eCAJmWakmWkk8XsEl-9" value="Task 6" style="swimlane;startSize=20;horizontal=0;html=1;fillColor=#FFCCE6;strokeColor=#FFFFCC;strokeWidth=2;shadow=1;swimlaneLine=1;" vertex="1" parent="Bz1eCAJmWakmWkk8XsEl-2">
                    <mxGeometry y="440" width="1220" height="80" as="geometry"/>
                </mxCell>
                <mxCell id="Bz1eCAJmWakmWkk8XsEl-10" value="Task 7" style="swimlane;startSize=20;horizontal=0;html=1;fillColor=#FFCCE6;strokeColor=#FFFFCC;strokeWidth=2;shadow=1;swimlaneLine=1;" vertex="1" parent="Bz1eCAJmWakmWkk8XsEl-2">
                    <mxGeometry y="520" width="1220" height="80" as="geometry"/>
                </mxCell>
                <mxCell id="Bz1eCAJmWakmWkk8XsEl-11" value="Task 8" style="swimlane;startSize=20;horizontal=0;html=1;fillColor=#FFCCE6;strokeColor=#FFFFCC;strokeWidth=2;shadow=1;swimlaneLine=1;" vertex="1" parent="Bz1eCAJmWakmWkk8XsEl-2">
                    <mxGeometry y="600" width="1220" height="80" as="geometry"/>
                </mxCell>
                <mxCell id="Bz1eCAJmWakmWkk8XsEl-12" value="Template Gantt Chart" style="swimlane;childLayout=stackLayout;resizeParent=1;resizeParentMax=0;startSize=20;html=1;gradientColor=none;swimlaneFillColor=none;swimlaneLine=1;glass=0;rounded=0;shadow=1;fillColor=#FFCCE6;strokeColor=#FFFFCC;strokeWidth=2;" vertex="1" parent="Bz1eCAJmWakmWkk8XsEl-1">
                    <mxGeometry x="-160" y="80" width="1200" height="680" as="geometry"/>
                </mxCell>
                <mxCell id="Bz1eCAJmWakmWkk8XsEl-13" value="Time 1" style="swimlane;startSize=20;html=1;fillColor=#FFCCE6;strokeColor=#FFFFCC;strokeWidth=2;shadow=1;swimlaneLine=1;" vertex="1" parent="Bz1eCAJmWakmWkk8XsEl-12">
                    <mxGeometry y="20" width="80" height="660" as="geometry"/>
                </mxCell>
                <mxCell id="Bz1eCAJmWakmWkk8XsEl-14" value="&lt;span style=&quot;color: rgb(0, 0, 0);&quot;&gt;Time 2&lt;/span&gt;" style="swimlane;startSize=20;html=1;fillColor=#FFCCE6;strokeColor=#FFFFCC;strokeWidth=2;shadow=1;swimlaneLine=1;" vertex="1" parent="Bz1eCAJmWakmWkk8XsEl-12">
                    <mxGeometry x="80" y="20" width="80" height="660" as="geometry"/>
                </mxCell>
                <mxCell id="Bz1eCAJmWakmWkk8XsEl-15" value="&lt;span style=&quot;color: rgb(0, 0, 0);&quot;&gt;Time 3&lt;/span&gt;" style="swimlane;startSize=20;html=1;fillColor=#FFCCE6;strokeColor=#FFFFCC;strokeWidth=2;shadow=1;swimlaneLine=1;" vertex="1" parent="Bz1eCAJmWakmWkk8XsEl-12">
                    <mxGeometry x="160" y="20" width="80" height="660" as="geometry"/>
                </mxCell>
                <mxCell id="Bz1eCAJmWakmWkk8XsEl-16" value="&lt;span style=&quot;color: rgb(0, 0, 0);&quot;&gt;Time 4&lt;/span&gt;" style="swimlane;startSize=20;html=1;fillColor=#FFCCE6;strokeColor=#FFFFCC;strokeWidth=2;shadow=1;swimlaneLine=1;" vertex="1" parent="Bz1eCAJmWakmWkk8XsEl-12">
                    <mxGeometry x="240" y="20" width="80" height="660" as="geometry"/>
                </mxCell>
                <mxCell id="Bz1eCAJmWakmWkk8XsEl-17" value="&lt;span style=&quot;color: rgb(0, 0, 0);&quot;&gt;Time 5&lt;/span&gt;" style="swimlane;startSize=20;html=1;fillColor=#FFCCE6;strokeColor=#FFFFCC;strokeWidth=2;shadow=1;swimlaneLine=1;" vertex="1" parent="Bz1eCAJmWakmWkk8XsEl-12">
                    <mxGeometry x="320" y="20" width="80" height="660" as="geometry"/>
                </mxCell>
                <mxCell id="Bz1eCAJmWakmWkk8XsEl-18" value="&lt;span style=&quot;color: rgb(0, 0, 0);&quot;&gt;Time 6&lt;/span&gt;" style="swimlane;startSize=20;html=1;fillColor=#FFCCE6;strokeColor=#FFFFCC;strokeWidth=2;shadow=1;swimlaneLine=1;" vertex="1" parent="Bz1eCAJmWakmWkk8XsEl-12">
                    <mxGeometry x="400" y="20" width="80" height="660" as="geometry"/>
                </mxCell>
                <mxCell id="Bz1eCAJmWakmWkk8XsEl-19" value="&lt;span style=&quot;color: rgb(0, 0, 0);&quot;&gt;Time 7&lt;/span&gt;" style="swimlane;startSize=20;html=1;fillColor=#FFCCE6;strokeColor=#FFFFCC;strokeWidth=2;shadow=1;swimlaneLine=1;" vertex="1" parent="Bz1eCAJmWakmWkk8XsEl-12">
                    <mxGeometry x="480" y="20" width="80" height="660" as="geometry"/>
                </mxCell>
                <mxCell id="Bz1eCAJmWakmWkk8XsEl-20" value="&lt;span style=&quot;color: rgb(0, 0, 0);&quot;&gt;Time 8&lt;/span&gt;" style="swimlane;startSize=20;html=1;fillColor=#FFCCE6;strokeColor=#FFFFCC;strokeWidth=2;shadow=1;swimlaneLine=1;" vertex="1" parent="Bz1eCAJmWakmWkk8XsEl-12">
                    <mxGeometry x="560" y="20" width="80" height="660" as="geometry"/>
                </mxCell>
                <mxCell id="Bz1eCAJmWakmWkk8XsEl-21" value="&lt;span style=&quot;color: rgb(0, 0, 0);&quot;&gt;Time 9&lt;/span&gt;" style="swimlane;startSize=20;html=1;fillColor=#FFCCE6;strokeColor=#FFFFCC;strokeWidth=2;shadow=1;swimlaneLine=1;" vertex="1" parent="Bz1eCAJmWakmWkk8XsEl-12">
                    <mxGeometry x="640" y="20" width="80" height="660" as="geometry"/>
                </mxCell>
                <mxCell id="Bz1eCAJmWakmWkk8XsEl-22" value="&lt;span style=&quot;color: rgb(0, 0, 0);&quot;&gt;Time 10&lt;/span&gt;" style="swimlane;startSize=20;html=1;fillColor=#FFCCE6;strokeColor=#FFFFCC;strokeWidth=2;shadow=1;swimlaneLine=1;" vertex="1" parent="Bz1eCAJmWakmWkk8XsEl-12">
                    <mxGeometry x="720" y="20" width="80" height="660" as="geometry"/>
                </mxCell>
                <mxCell id="Bz1eCAJmWakmWkk8XsEl-23" value="&lt;span style=&quot;color: rgb(0, 0, 0);&quot;&gt;Time 11&lt;/span&gt;" style="swimlane;startSize=20;html=1;fillColor=#FFCCE6;strokeColor=#FFFFCC;strokeWidth=2;shadow=1;swimlaneLine=1;" vertex="1" parent="Bz1eCAJmWakmWkk8XsEl-12">
                    <mxGeometry x="800" y="20" width="80" height="660" as="geometry"/>
                </mxCell>
                <mxCell id="Bz1eCAJmWakmWkk8XsEl-24" value="&lt;span style=&quot;color: rgb(0, 0, 0);&quot;&gt;Time 12&lt;/span&gt;" style="swimlane;startSize=20;html=1;fillColor=#FFCCE6;strokeColor=#FFFFCC;strokeWidth=2;shadow=1;swimlaneLine=1;" vertex="1" parent="Bz1eCAJmWakmWkk8XsEl-12">
                    <mxGeometry x="880" y="20" width="80" height="660" as="geometry"/>
                </mxCell>
                <mxCell id="Bz1eCAJmWakmWkk8XsEl-25" value="&lt;span style=&quot;color: rgb(0, 0, 0);&quot;&gt;Time 13&lt;/span&gt;" style="swimlane;startSize=20;html=1;fillColor=#FFCCE6;strokeColor=#FFFFCC;strokeWidth=2;shadow=1;swimlaneLine=1;" vertex="1" parent="Bz1eCAJmWakmWkk8XsEl-12">
                    <mxGeometry x="960" y="20" width="80" height="660" as="geometry"/>
                </mxCell>
                <mxCell id="Bz1eCAJmWakmWkk8XsEl-26" value="&lt;span style=&quot;color: rgb(0, 0, 0);&quot;&gt;Time 14&lt;/span&gt;" style="swimlane;startSize=20;html=1;fillColor=#FFCCE6;strokeColor=#FFFFCC;strokeWidth=2;shadow=1;swimlaneLine=1;" vertex="1" parent="Bz1eCAJmWakmWkk8XsEl-12">
                    <mxGeometry x="1040" y="20" width="80" height="660" as="geometry"/>
                </mxCell>
                <mxCell id="Bz1eCAJmWakmWkk8XsEl-27" value="&lt;span style=&quot;color: rgb(0, 0, 0);&quot;&gt;Time 15&lt;/span&gt;" style="swimlane;startSize=20;html=1;fillColor=#FFCCE6;strokeColor=#FFFFCC;strokeWidth=2;shadow=1;swimlaneLine=1;" vertex="1" parent="Bz1eCAJmWakmWkk8XsEl-12">
                    <mxGeometry x="1120" y="20" width="80" height="660" as="geometry"/>
                </mxCell>
                <mxCell id="Bz1eCAJmWakmWkk8XsEl-28" value="" style="rounded=0;whiteSpace=wrap;html=1;fillColor=#FFCCE6;strokeColor=#FFFFCC;strokeWidth=2;shadow=1;swimlaneLine=1;" vertex="1" parent="Bz1eCAJmWakmWkk8XsEl-1">
                    <mxGeometry x="-120" y="140" width="641" height="40" as="geometry"/>
                </mxCell>
                <mxCell id="Bz1eCAJmWakmWkk8XsEl-29" value="" style="rounded=0;whiteSpace=wrap;html=1;fillColor=#FFCCE6;strokeColor=#FFFFCC;strokeWidth=2;shadow=1;swimlaneLine=1;" vertex="1" parent="Bz1eCAJmWakmWkk8XsEl-1">
                    <mxGeometry x="-40" y="220" width="641" height="40" as="geometry"/>
                </mxCell>
                <mxCell id="Bz1eCAJmWakmWkk8XsEl-30" value="" style="rounded=0;whiteSpace=wrap;html=1;fillColor=#FFCCE6;strokeColor=#FFFFCC;strokeWidth=2;shadow=1;swimlaneLine=1;" vertex="1" parent="Bz1eCAJmWakmWkk8XsEl-1">
                    <mxGeometry x="40" y="300" width="561" height="40" as="geometry"/>
                </mxCell>
                <mxCell id="Bz1eCAJmWakmWkk8XsEl-31" value="" style="rounded=0;whiteSpace=wrap;html=1;fillColor=#FFCCE6;strokeColor=#FFFFCC;strokeWidth=2;shadow=1;swimlaneLine=1;" vertex="1" parent="Bz1eCAJmWakmWkk8XsEl-1">
                    <mxGeometry x="40" y="380" width="880" height="40" as="geometry"/>
                </mxCell>
                <mxCell id="Bz1eCAJmWakmWkk8XsEl-32" value="" style="rounded=0;whiteSpace=wrap;html=1;fillColor=#FFCCE6;strokeColor=#FFFFCC;strokeWidth=2;shadow=1;swimlaneLine=1;" vertex="1" parent="Bz1eCAJmWakmWkk8XsEl-1">
                    <mxGeometry x="80" y="460" width="880" height="40" as="geometry"/>
                </mxCell>
                <mxCell id="Bz1eCAJmWakmWkk8XsEl-33" value="" style="rounded=0;whiteSpace=wrap;html=1;fillColor=#FFCCE6;strokeColor=#FFFFCC;strokeWidth=2;shadow=1;swimlaneLine=1;" vertex="1" parent="Bz1eCAJmWakmWkk8XsEl-1">
                    <mxGeometry x="120" y="540" width="280" height="40" as="geometry"/>
                </mxCell>
                <mxCell id="Bz1eCAJmWakmWkk8XsEl-35" value="" style="rounded=0;whiteSpace=wrap;html=1;fillColor=#FFCCE6;strokeColor=#FFFFCC;strokeWidth=2;shadow=1;swimlaneLine=1;" vertex="1" parent="Bz1eCAJmWakmWkk8XsEl-1">
                    <mxGeometry x="760" y="620" width="280" height="40" as="geometry"/>
                </mxCell>
                <mxCell id="Bz1eCAJmWakmWkk8XsEl-36" value="" style="rounded=0;whiteSpace=wrap;html=1;fillColor=#FFCCE6;strokeColor=#FFFFCC;strokeWidth=2;shadow=1;swimlaneLine=1;" vertex="1" parent="Bz1eCAJmWakmWkk8XsEl-1">
                    <mxGeometry x="840" y="700" width="200" height="40" as="geometry"/>
                </mxCell>
                <mxCell id="Bz1eCAJmWakmWkk8XsEl-37" value="" style="rounded=0;whiteSpace=wrap;html=1;strokeWidth=2;shadow=1;swimlaneLine=1;glass=0;strokeColor=#FFFFCC;fillColor=#FFCCE6;" vertex="1" parent="Bz1eCAJmWakmWkk8XsEl-1">
                    <mxGeometry x="400" y="540" width="280" height="40" as="geometry"/>
                </mxCell>
                <mxCell id="Bz1eCAJmWakmWkk8XsEl-38" value="" style="rounded=0;whiteSpace=wrap;html=1;strokeWidth=2;shadow=1;swimlaneLine=1;glass=0;gradientColor=none;fillStyle=hatch;fillColor=#FFCCE6;strokeColor=#FFFFCC;" vertex="1" parent="Bz1eCAJmWakmWkk8XsEl-1">
                    <mxGeometry x="400" y="540" width="280" height="40" as="geometry"/>
                </mxCell>
                <mxCell id="Bz1eCAJmWakmWkk8XsEl-34" value="" style="rounded=0;whiteSpace=wrap;html=1;fillColor=#FFCCE6;strokeColor=#FFFFCC;strokeWidth=2;shadow=1;swimlaneLine=1;" vertex="1" parent="Bz1eCAJmWakmWkk8XsEl-1">
                    <mxGeometry x="680" y="540" width="280" height="40" as="geometry"/>
                </mxCell>
            </root>
        </mxGraphModel>
    </diagram>
    <diagram name="Hulk" id="OgmGf2ARhWs1HEvHqw24">
        <mxGraphModel dx="2392" dy="938" grid="1" gridSize="10" guides="1" tooltips="1" connect="1" arrows="1" fold="1" page="0" pageScale="1" pageWidth="850" pageHeight="1100" math="0" shadow="0">
            <root>
                <mxCell id="KSK-A2TSffVZT0OGiX8D-0"/>
                <mxCell id="KSK-A2TSffVZT0OGiX8D-1" parent="KSK-A2TSffVZT0OGiX8D-0"/>
                <mxCell id="KSK-A2TSffVZT0OGiX8D-2" value="Pool" style="swimlane;childLayout=stackLayout;resizeParent=1;resizeParentMax=0;horizontal=1;startSize=20;horizontalStack=0;html=1;fillColor=#00FF00;strokeColor=#7F00FF;strokeWidth=2;shadow=1;swimlaneLine=1;" vertex="1" parent="KSK-A2TSffVZT0OGiX8D-1">
                    <mxGeometry x="-180" y="80" width="1220" height="680" as="geometry">
                        <mxRectangle x="-180" y="80" width="60" height="30" as="alternateBounds"/>
                    </mxGeometry>
                </mxCell>
                <mxCell id="KSK-A2TSffVZT0OGiX8D-3" value="" style="rounded=0;whiteSpace=wrap;html=1;fillColor=#00FF00;strokeColor=#7F00FF;strokeWidth=2;shadow=1;swimlaneLine=1;" vertex="1" parent="KSK-A2TSffVZT0OGiX8D-2">
                    <mxGeometry y="20" width="1220" height="20" as="geometry"/>
                </mxCell>
                <mxCell id="KSK-A2TSffVZT0OGiX8D-4" value="Task 1" style="swimlane;startSize=20;horizontal=0;html=1;fillColor=#00FF00;strokeColor=#7F00FF;strokeWidth=2;shadow=1;swimlaneLine=1;" vertex="1" parent="KSK-A2TSffVZT0OGiX8D-2">
                    <mxGeometry y="40" width="1220" height="80" as="geometry">
                        <mxRectangle y="20" width="1210" height="30" as="alternateBounds"/>
                    </mxGeometry>
                </mxCell>
                <mxCell id="KSK-A2TSffVZT0OGiX8D-5" value="Task 2" style="swimlane;startSize=20;horizontal=0;html=1;fillColor=#00FF00;strokeColor=#7F00FF;strokeWidth=2;shadow=1;swimlaneLine=1;" vertex="1" parent="KSK-A2TSffVZT0OGiX8D-2">
                    <mxGeometry y="120" width="1220" height="80" as="geometry"/>
                </mxCell>
                <mxCell id="KSK-A2TSffVZT0OGiX8D-6" value="Task 3" style="swimlane;startSize=20;horizontal=0;html=1;fillColor=#00FF00;strokeColor=#7F00FF;strokeWidth=2;shadow=1;swimlaneLine=1;" vertex="1" parent="KSK-A2TSffVZT0OGiX8D-2">
                    <mxGeometry y="200" width="1220" height="80" as="geometry"/>
                </mxCell>
                <mxCell id="KSK-A2TSffVZT0OGiX8D-7" value="Task 4" style="swimlane;startSize=20;horizontal=0;html=1;fillColor=#00FF00;strokeColor=#7F00FF;strokeWidth=2;shadow=1;swimlaneLine=1;" vertex="1" parent="KSK-A2TSffVZT0OGiX8D-2">
                    <mxGeometry y="280" width="1220" height="80" as="geometry"/>
                </mxCell>
                <mxCell id="KSK-A2TSffVZT0OGiX8D-8" value="Task 5" style="swimlane;startSize=20;horizontal=0;html=1;fillColor=#00FF00;strokeColor=#7F00FF;strokeWidth=2;shadow=1;swimlaneLine=1;" vertex="1" parent="KSK-A2TSffVZT0OGiX8D-2">
                    <mxGeometry y="360" width="1220" height="80" as="geometry"/>
                </mxCell>
                <mxCell id="KSK-A2TSffVZT0OGiX8D-9" value="Task 6" style="swimlane;startSize=20;horizontal=0;html=1;fillColor=#00FF00;strokeColor=#7F00FF;strokeWidth=2;shadow=1;swimlaneLine=1;" vertex="1" parent="KSK-A2TSffVZT0OGiX8D-2">
                    <mxGeometry y="440" width="1220" height="80" as="geometry"/>
                </mxCell>
                <mxCell id="KSK-A2TSffVZT0OGiX8D-10" value="Task 7" style="swimlane;startSize=20;horizontal=0;html=1;fillColor=#00FF00;strokeColor=#7F00FF;strokeWidth=2;shadow=1;swimlaneLine=1;" vertex="1" parent="KSK-A2TSffVZT0OGiX8D-2">
                    <mxGeometry y="520" width="1220" height="80" as="geometry"/>
                </mxCell>
                <mxCell id="KSK-A2TSffVZT0OGiX8D-11" value="Task 8" style="swimlane;startSize=20;horizontal=0;html=1;fillColor=#00FF00;strokeColor=#7F00FF;strokeWidth=2;shadow=1;swimlaneLine=1;" vertex="1" parent="KSK-A2TSffVZT0OGiX8D-2">
                    <mxGeometry y="600" width="1220" height="80" as="geometry"/>
                </mxCell>
                <mxCell id="KSK-A2TSffVZT0OGiX8D-12" value="Template Gantt Chart" style="swimlane;childLayout=stackLayout;resizeParent=1;resizeParentMax=0;startSize=20;html=1;gradientColor=none;swimlaneFillColor=none;swimlaneLine=1;glass=0;rounded=0;shadow=1;fillColor=#00FF00;strokeColor=#7F00FF;strokeWidth=2;" vertex="1" parent="KSK-A2TSffVZT0OGiX8D-1">
                    <mxGeometry x="-160" y="80" width="1200" height="680" as="geometry"/>
                </mxCell>
                <mxCell id="KSK-A2TSffVZT0OGiX8D-13" value="Time 1" style="swimlane;startSize=20;html=1;fillColor=#00FF00;strokeColor=#7F00FF;strokeWidth=2;shadow=1;swimlaneLine=1;" vertex="1" parent="KSK-A2TSffVZT0OGiX8D-12">
                    <mxGeometry y="20" width="80" height="660" as="geometry"/>
                </mxCell>
                <mxCell id="KSK-A2TSffVZT0OGiX8D-14" value="&lt;span style=&quot;color: rgb(0, 0, 0);&quot;&gt;Time 2&lt;/span&gt;" style="swimlane;startSize=20;html=1;fillColor=#00FF00;strokeColor=#7F00FF;strokeWidth=2;shadow=1;swimlaneLine=1;" vertex="1" parent="KSK-A2TSffVZT0OGiX8D-12">
                    <mxGeometry x="80" y="20" width="80" height="660" as="geometry"/>
                </mxCell>
                <mxCell id="KSK-A2TSffVZT0OGiX8D-15" value="&lt;span style=&quot;color: rgb(0, 0, 0);&quot;&gt;Time 3&lt;/span&gt;" style="swimlane;startSize=20;html=1;fillColor=#00FF00;strokeColor=#7F00FF;strokeWidth=2;shadow=1;swimlaneLine=1;" vertex="1" parent="KSK-A2TSffVZT0OGiX8D-12">
                    <mxGeometry x="160" y="20" width="80" height="660" as="geometry"/>
                </mxCell>
                <mxCell id="KSK-A2TSffVZT0OGiX8D-16" value="&lt;span style=&quot;color: rgb(0, 0, 0);&quot;&gt;Time 4&lt;/span&gt;" style="swimlane;startSize=20;html=1;fillColor=#00FF00;strokeColor=#7F00FF;strokeWidth=2;shadow=1;swimlaneLine=1;" vertex="1" parent="KSK-A2TSffVZT0OGiX8D-12">
                    <mxGeometry x="240" y="20" width="80" height="660" as="geometry"/>
                </mxCell>
                <mxCell id="KSK-A2TSffVZT0OGiX8D-17" value="&lt;span style=&quot;color: rgb(0, 0, 0);&quot;&gt;Time 5&lt;/span&gt;" style="swimlane;startSize=20;html=1;fillColor=#00FF00;strokeColor=#7F00FF;strokeWidth=2;shadow=1;swimlaneLine=1;" vertex="1" parent="KSK-A2TSffVZT0OGiX8D-12">
                    <mxGeometry x="320" y="20" width="80" height="660" as="geometry"/>
                </mxCell>
                <mxCell id="KSK-A2TSffVZT0OGiX8D-18" value="&lt;span style=&quot;color: rgb(0, 0, 0);&quot;&gt;Time 6&lt;/span&gt;" style="swimlane;startSize=20;html=1;fillColor=#00FF00;strokeColor=#7F00FF;strokeWidth=2;shadow=1;swimlaneLine=1;" vertex="1" parent="KSK-A2TSffVZT0OGiX8D-12">
                    <mxGeometry x="400" y="20" width="80" height="660" as="geometry"/>
                </mxCell>
                <mxCell id="KSK-A2TSffVZT0OGiX8D-19" value="&lt;span style=&quot;color: rgb(0, 0, 0);&quot;&gt;Time 7&lt;/span&gt;" style="swimlane;startSize=20;html=1;fillColor=#00FF00;strokeColor=#7F00FF;strokeWidth=2;shadow=1;swimlaneLine=1;" vertex="1" parent="KSK-A2TSffVZT0OGiX8D-12">
                    <mxGeometry x="480" y="20" width="80" height="660" as="geometry"/>
                </mxCell>
                <mxCell id="KSK-A2TSffVZT0OGiX8D-20" value="&lt;span style=&quot;color: rgb(0, 0, 0);&quot;&gt;Time 8&lt;/span&gt;" style="swimlane;startSize=20;html=1;fillColor=#00FF00;strokeColor=#7F00FF;strokeWidth=2;shadow=1;swimlaneLine=1;" vertex="1" parent="KSK-A2TSffVZT0OGiX8D-12">
                    <mxGeometry x="560" y="20" width="80" height="660" as="geometry"/>
                </mxCell>
                <mxCell id="KSK-A2TSffVZT0OGiX8D-21" value="&lt;span style=&quot;color: rgb(0, 0, 0);&quot;&gt;Time 9&lt;/span&gt;" style="swimlane;startSize=20;html=1;fillColor=#00FF00;strokeColor=#7F00FF;strokeWidth=2;shadow=1;swimlaneLine=1;" vertex="1" parent="KSK-A2TSffVZT0OGiX8D-12">
                    <mxGeometry x="640" y="20" width="80" height="660" as="geometry"/>
                </mxCell>
                <mxCell id="KSK-A2TSffVZT0OGiX8D-22" value="&lt;span style=&quot;color: rgb(0, 0, 0);&quot;&gt;Time 10&lt;/span&gt;" style="swimlane;startSize=20;html=1;fillColor=#00FF00;strokeColor=#7F00FF;strokeWidth=2;shadow=1;swimlaneLine=1;" vertex="1" parent="KSK-A2TSffVZT0OGiX8D-12">
                    <mxGeometry x="720" y="20" width="80" height="660" as="geometry"/>
                </mxCell>
                <mxCell id="KSK-A2TSffVZT0OGiX8D-23" value="&lt;span style=&quot;color: rgb(0, 0, 0);&quot;&gt;Time 11&lt;/span&gt;" style="swimlane;startSize=20;html=1;fillColor=#00FF00;strokeColor=#7F00FF;strokeWidth=2;shadow=1;swimlaneLine=1;" vertex="1" parent="KSK-A2TSffVZT0OGiX8D-12">
                    <mxGeometry x="800" y="20" width="80" height="660" as="geometry"/>
                </mxCell>
                <mxCell id="KSK-A2TSffVZT0OGiX8D-24" value="&lt;span style=&quot;color: rgb(0, 0, 0);&quot;&gt;Time 12&lt;/span&gt;" style="swimlane;startSize=20;html=1;fillColor=#00FF00;strokeColor=#7F00FF;strokeWidth=2;shadow=1;swimlaneLine=1;" vertex="1" parent="KSK-A2TSffVZT0OGiX8D-12">
                    <mxGeometry x="880" y="20" width="80" height="660" as="geometry"/>
                </mxCell>
                <mxCell id="KSK-A2TSffVZT0OGiX8D-25" value="&lt;span style=&quot;color: rgb(0, 0, 0);&quot;&gt;Time 13&lt;/span&gt;" style="swimlane;startSize=20;html=1;fillColor=#00FF00;strokeColor=#7F00FF;strokeWidth=2;shadow=1;swimlaneLine=1;" vertex="1" parent="KSK-A2TSffVZT0OGiX8D-12">
                    <mxGeometry x="960" y="20" width="80" height="660" as="geometry"/>
                </mxCell>
                <mxCell id="KSK-A2TSffVZT0OGiX8D-26" value="&lt;span style=&quot;color: rgb(0, 0, 0);&quot;&gt;Time 14&lt;/span&gt;" style="swimlane;startSize=20;html=1;fillColor=#00FF00;strokeColor=#7F00FF;strokeWidth=2;shadow=1;swimlaneLine=1;" vertex="1" parent="KSK-A2TSffVZT0OGiX8D-12">
                    <mxGeometry x="1040" y="20" width="80" height="660" as="geometry"/>
                </mxCell>
                <mxCell id="KSK-A2TSffVZT0OGiX8D-27" value="&lt;span style=&quot;color: rgb(0, 0, 0);&quot;&gt;Time 15&lt;/span&gt;" style="swimlane;startSize=20;html=1;fillColor=#00FF00;strokeColor=#7F00FF;strokeWidth=2;shadow=1;swimlaneLine=1;" vertex="1" parent="KSK-A2TSffVZT0OGiX8D-12">
                    <mxGeometry x="1120" y="20" width="80" height="660" as="geometry"/>
                </mxCell>
                <mxCell id="KSK-A2TSffVZT0OGiX8D-28" value="" style="rounded=0;whiteSpace=wrap;html=1;fillColor=#00FF00;strokeColor=#7F00FF;strokeWidth=2;shadow=1;swimlaneLine=1;" vertex="1" parent="KSK-A2TSffVZT0OGiX8D-1">
                    <mxGeometry x="-120" y="140" width="641" height="40" as="geometry"/>
                </mxCell>
                <mxCell id="KSK-A2TSffVZT0OGiX8D-29" value="" style="rounded=0;whiteSpace=wrap;html=1;fillColor=#00FF00;strokeColor=#7F00FF;strokeWidth=2;shadow=1;swimlaneLine=1;" vertex="1" parent="KSK-A2TSffVZT0OGiX8D-1">
                    <mxGeometry x="-40" y="220" width="641" height="40" as="geometry"/>
                </mxCell>
                <mxCell id="KSK-A2TSffVZT0OGiX8D-30" value="" style="rounded=0;whiteSpace=wrap;html=1;fillColor=#00FF00;strokeColor=#7F00FF;strokeWidth=2;shadow=1;swimlaneLine=1;" vertex="1" parent="KSK-A2TSffVZT0OGiX8D-1">
                    <mxGeometry x="40" y="300" width="561" height="40" as="geometry"/>
                </mxCell>
                <mxCell id="KSK-A2TSffVZT0OGiX8D-31" value="" style="rounded=0;whiteSpace=wrap;html=1;fillColor=#00FF00;strokeColor=#7F00FF;strokeWidth=2;shadow=1;swimlaneLine=1;" vertex="1" parent="KSK-A2TSffVZT0OGiX8D-1">
                    <mxGeometry x="40" y="380" width="880" height="40" as="geometry"/>
                </mxCell>
                <mxCell id="KSK-A2TSffVZT0OGiX8D-32" value="" style="rounded=0;whiteSpace=wrap;html=1;fillColor=#00FF00;strokeColor=#7F00FF;strokeWidth=2;shadow=1;swimlaneLine=1;" vertex="1" parent="KSK-A2TSffVZT0OGiX8D-1">
                    <mxGeometry x="80" y="460" width="880" height="40" as="geometry"/>
                </mxCell>
                <mxCell id="KSK-A2TSffVZT0OGiX8D-33" value="" style="rounded=0;whiteSpace=wrap;html=1;fillColor=#00FF00;strokeColor=#7F00FF;strokeWidth=2;shadow=1;swimlaneLine=1;" vertex="1" parent="KSK-A2TSffVZT0OGiX8D-1">
                    <mxGeometry x="120" y="540" width="280" height="40" as="geometry"/>
                </mxCell>
                <mxCell id="KSK-A2TSffVZT0OGiX8D-35" value="" style="rounded=0;whiteSpace=wrap;html=1;fillColor=#00FF00;strokeColor=#7F00FF;strokeWidth=2;shadow=1;swimlaneLine=1;" vertex="1" parent="KSK-A2TSffVZT0OGiX8D-1">
                    <mxGeometry x="760" y="620" width="280" height="40" as="geometry"/>
                </mxCell>
                <mxCell id="KSK-A2TSffVZT0OGiX8D-36" value="" style="rounded=0;whiteSpace=wrap;html=1;fillColor=#00FF00;strokeColor=#7F00FF;strokeWidth=2;shadow=1;swimlaneLine=1;" vertex="1" parent="KSK-A2TSffVZT0OGiX8D-1">
                    <mxGeometry x="840" y="700" width="200" height="40" as="geometry"/>
                </mxCell>
                <mxCell id="KSK-A2TSffVZT0OGiX8D-37" value="" style="rounded=0;whiteSpace=wrap;html=1;strokeWidth=2;shadow=1;swimlaneLine=1;glass=0;strokeColor=#7F00FF;fillColor=#00FF00;" vertex="1" parent="KSK-A2TSffVZT0OGiX8D-1">
                    <mxGeometry x="400" y="540" width="280" height="40" as="geometry"/>
                </mxCell>
                <mxCell id="KSK-A2TSffVZT0OGiX8D-38" value="" style="rounded=0;whiteSpace=wrap;html=1;strokeWidth=2;shadow=1;swimlaneLine=1;glass=0;gradientColor=none;fillStyle=hatch;fillColor=#7F00FF;strokeColor=#7F00FF;" vertex="1" parent="KSK-A2TSffVZT0OGiX8D-1">
                    <mxGeometry x="400" y="540" width="280" height="40" as="geometry"/>
                </mxCell>
                <mxCell id="KSK-A2TSffVZT0OGiX8D-34" value="" style="rounded=0;whiteSpace=wrap;html=1;fillColor=#00FF00;strokeColor=#7F00FF;strokeWidth=2;shadow=1;swimlaneLine=1;" vertex="1" parent="KSK-A2TSffVZT0OGiX8D-1">
                    <mxGeometry x="680" y="540" width="280" height="40" as="geometry"/>
                </mxCell>
            </root>
        </mxGraphModel>
    </diagram>
    <diagram name="CottonCandy" id="XABDW3_Sd_Tld2pLMYt4">
        <mxGraphModel dx="2093" dy="797" grid="1" gridSize="10" guides="1" tooltips="1" connect="1" arrows="1" fold="1" page="0" pageScale="1" pageWidth="850" pageHeight="1100" math="0" shadow="0">
            <root>
                <mxCell id="8vf6xd73BegqSxqnURu--0"/>
                <mxCell id="8vf6xd73BegqSxqnURu--1" parent="8vf6xd73BegqSxqnURu--0"/>
                <mxCell id="8vf6xd73BegqSxqnURu--2" value="Pool" style="swimlane;childLayout=stackLayout;resizeParent=1;resizeParentMax=0;horizontal=1;startSize=20;horizontalStack=0;html=1;fillColor=#66FFFF;strokeColor=#FF3399;strokeWidth=2;shadow=1;swimlaneLine=1;" vertex="1" parent="8vf6xd73BegqSxqnURu--1">
                    <mxGeometry x="-180" y="80" width="1220" height="680" as="geometry">
                        <mxRectangle x="-180" y="80" width="60" height="30" as="alternateBounds"/>
                    </mxGeometry>
                </mxCell>
                <mxCell id="8vf6xd73BegqSxqnURu--3" value="" style="rounded=0;whiteSpace=wrap;html=1;fillColor=#66FFFF;strokeColor=#FF3399;strokeWidth=2;shadow=1;swimlaneLine=1;" vertex="1" parent="8vf6xd73BegqSxqnURu--2">
                    <mxGeometry y="20" width="1220" height="20" as="geometry"/>
                </mxCell>
                <mxCell id="8vf6xd73BegqSxqnURu--4" value="Task 1" style="swimlane;startSize=20;horizontal=0;html=1;fillColor=#66FFFF;strokeColor=#FF3399;strokeWidth=2;shadow=1;swimlaneLine=1;" vertex="1" parent="8vf6xd73BegqSxqnURu--2">
                    <mxGeometry y="40" width="1220" height="80" as="geometry">
                        <mxRectangle y="20" width="1210" height="30" as="alternateBounds"/>
                    </mxGeometry>
                </mxCell>
                <mxCell id="8vf6xd73BegqSxqnURu--5" value="Task 2" style="swimlane;startSize=20;horizontal=0;html=1;fillColor=#66FFFF;strokeColor=#FF3399;strokeWidth=2;shadow=1;swimlaneLine=1;" vertex="1" parent="8vf6xd73BegqSxqnURu--2">
                    <mxGeometry y="120" width="1220" height="80" as="geometry"/>
                </mxCell>
                <mxCell id="8vf6xd73BegqSxqnURu--6" value="Task 3" style="swimlane;startSize=20;horizontal=0;html=1;fillColor=#66FFFF;strokeColor=#FF3399;strokeWidth=2;shadow=1;swimlaneLine=1;" vertex="1" parent="8vf6xd73BegqSxqnURu--2">
                    <mxGeometry y="200" width="1220" height="80" as="geometry"/>
                </mxCell>
                <mxCell id="8vf6xd73BegqSxqnURu--7" value="Task 4" style="swimlane;startSize=20;horizontal=0;html=1;fillColor=#66FFFF;strokeColor=#FF3399;strokeWidth=2;shadow=1;swimlaneLine=1;" vertex="1" parent="8vf6xd73BegqSxqnURu--2">
                    <mxGeometry y="280" width="1220" height="80" as="geometry"/>
                </mxCell>
                <mxCell id="8vf6xd73BegqSxqnURu--8" value="Task 5" style="swimlane;startSize=20;horizontal=0;html=1;fillColor=#66FFFF;strokeColor=#FF3399;strokeWidth=2;shadow=1;swimlaneLine=1;" vertex="1" parent="8vf6xd73BegqSxqnURu--2">
                    <mxGeometry y="360" width="1220" height="80" as="geometry"/>
                </mxCell>
                <mxCell id="8vf6xd73BegqSxqnURu--9" value="Task 6" style="swimlane;startSize=20;horizontal=0;html=1;fillColor=#66FFFF;strokeColor=#FF3399;strokeWidth=2;shadow=1;swimlaneLine=1;" vertex="1" parent="8vf6xd73BegqSxqnURu--2">
                    <mxGeometry y="440" width="1220" height="80" as="geometry"/>
                </mxCell>
                <mxCell id="8vf6xd73BegqSxqnURu--10" value="Task 7" style="swimlane;startSize=20;horizontal=0;html=1;fillColor=#66FFFF;strokeColor=#FF3399;strokeWidth=2;shadow=1;swimlaneLine=1;" vertex="1" parent="8vf6xd73BegqSxqnURu--2">
                    <mxGeometry y="520" width="1220" height="80" as="geometry"/>
                </mxCell>
                <mxCell id="8vf6xd73BegqSxqnURu--11" value="Task 8" style="swimlane;startSize=20;horizontal=0;html=1;fillColor=#66FFFF;strokeColor=#FF3399;strokeWidth=2;shadow=1;swimlaneLine=1;" vertex="1" parent="8vf6xd73BegqSxqnURu--2">
                    <mxGeometry y="600" width="1220" height="80" as="geometry"/>
                </mxCell>
                <mxCell id="8vf6xd73BegqSxqnURu--12" value="Template Gantt Chart" style="swimlane;childLayout=stackLayout;resizeParent=1;resizeParentMax=0;startSize=20;html=1;gradientColor=none;swimlaneFillColor=none;swimlaneLine=1;glass=0;rounded=0;shadow=1;fillColor=#66FFFF;strokeColor=#FF3399;strokeWidth=2;" vertex="1" parent="8vf6xd73BegqSxqnURu--1">
                    <mxGeometry x="-160" y="80" width="1200" height="680" as="geometry"/>
                </mxCell>
                <mxCell id="8vf6xd73BegqSxqnURu--13" value="Time 1" style="swimlane;startSize=20;html=1;fillColor=#66FFFF;strokeColor=#FF3399;strokeWidth=2;shadow=1;swimlaneLine=1;" vertex="1" parent="8vf6xd73BegqSxqnURu--12">
                    <mxGeometry y="20" width="80" height="660" as="geometry"/>
                </mxCell>
                <mxCell id="8vf6xd73BegqSxqnURu--14" value="&lt;span style=&quot;color: rgb(0, 0, 0);&quot;&gt;Time 2&lt;/span&gt;" style="swimlane;startSize=20;html=1;fillColor=#66FFFF;strokeColor=#FF3399;strokeWidth=2;shadow=1;swimlaneLine=1;" vertex="1" parent="8vf6xd73BegqSxqnURu--12">
                    <mxGeometry x="80" y="20" width="80" height="660" as="geometry"/>
                </mxCell>
                <mxCell id="8vf6xd73BegqSxqnURu--15" value="&lt;span style=&quot;color: rgb(0, 0, 0);&quot;&gt;Time 3&lt;/span&gt;" style="swimlane;startSize=20;html=1;fillColor=#66FFFF;strokeColor=#FF3399;strokeWidth=2;shadow=1;swimlaneLine=1;" vertex="1" parent="8vf6xd73BegqSxqnURu--12">
                    <mxGeometry x="160" y="20" width="80" height="660" as="geometry"/>
                </mxCell>
                <mxCell id="8vf6xd73BegqSxqnURu--16" value="&lt;span style=&quot;color: rgb(0, 0, 0);&quot;&gt;Time 4&lt;/span&gt;" style="swimlane;startSize=20;html=1;fillColor=#66FFFF;strokeColor=#FF3399;strokeWidth=2;shadow=1;swimlaneLine=1;" vertex="1" parent="8vf6xd73BegqSxqnURu--12">
                    <mxGeometry x="240" y="20" width="80" height="660" as="geometry"/>
                </mxCell>
                <mxCell id="8vf6xd73BegqSxqnURu--17" value="&lt;span style=&quot;color: rgb(0, 0, 0);&quot;&gt;Time 5&lt;/span&gt;" style="swimlane;startSize=20;html=1;fillColor=#66FFFF;strokeColor=#FF3399;strokeWidth=2;shadow=1;swimlaneLine=1;" vertex="1" parent="8vf6xd73BegqSxqnURu--12">
                    <mxGeometry x="320" y="20" width="80" height="660" as="geometry"/>
                </mxCell>
                <mxCell id="8vf6xd73BegqSxqnURu--18" value="&lt;span style=&quot;color: rgb(0, 0, 0);&quot;&gt;Time 6&lt;/span&gt;" style="swimlane;startSize=20;html=1;fillColor=#66FFFF;strokeColor=#FF3399;strokeWidth=2;shadow=1;swimlaneLine=1;" vertex="1" parent="8vf6xd73BegqSxqnURu--12">
                    <mxGeometry x="400" y="20" width="80" height="660" as="geometry"/>
                </mxCell>
                <mxCell id="8vf6xd73BegqSxqnURu--19" value="&lt;span style=&quot;color: rgb(0, 0, 0);&quot;&gt;Time 7&lt;/span&gt;" style="swimlane;startSize=20;html=1;fillColor=#66FFFF;strokeColor=#FF3399;strokeWidth=2;shadow=1;swimlaneLine=1;" vertex="1" parent="8vf6xd73BegqSxqnURu--12">
                    <mxGeometry x="480" y="20" width="80" height="660" as="geometry"/>
                </mxCell>
                <mxCell id="8vf6xd73BegqSxqnURu--20" value="&lt;span style=&quot;color: rgb(0, 0, 0);&quot;&gt;Time 8&lt;/span&gt;" style="swimlane;startSize=20;html=1;fillColor=#66FFFF;strokeColor=#FF3399;strokeWidth=2;shadow=1;swimlaneLine=1;" vertex="1" parent="8vf6xd73BegqSxqnURu--12">
                    <mxGeometry x="560" y="20" width="80" height="660" as="geometry"/>
                </mxCell>
                <mxCell id="8vf6xd73BegqSxqnURu--21" value="&lt;span style=&quot;color: rgb(0, 0, 0);&quot;&gt;Time 9&lt;/span&gt;" style="swimlane;startSize=20;html=1;fillColor=#66FFFF;strokeColor=#FF3399;strokeWidth=2;shadow=1;swimlaneLine=1;" vertex="1" parent="8vf6xd73BegqSxqnURu--12">
                    <mxGeometry x="640" y="20" width="80" height="660" as="geometry"/>
                </mxCell>
                <mxCell id="8vf6xd73BegqSxqnURu--22" value="&lt;span style=&quot;color: rgb(0, 0, 0);&quot;&gt;Time 10&lt;/span&gt;" style="swimlane;startSize=20;html=1;fillColor=#66FFFF;strokeColor=#FF3399;strokeWidth=2;shadow=1;swimlaneLine=1;" vertex="1" parent="8vf6xd73BegqSxqnURu--12">
                    <mxGeometry x="720" y="20" width="80" height="660" as="geometry"/>
                </mxCell>
                <mxCell id="8vf6xd73BegqSxqnURu--23" value="&lt;span style=&quot;color: rgb(0, 0, 0);&quot;&gt;Time 11&lt;/span&gt;" style="swimlane;startSize=20;html=1;fillColor=#66FFFF;strokeColor=#FF3399;strokeWidth=2;shadow=1;swimlaneLine=1;" vertex="1" parent="8vf6xd73BegqSxqnURu--12">
                    <mxGeometry x="800" y="20" width="80" height="660" as="geometry"/>
                </mxCell>
                <mxCell id="8vf6xd73BegqSxqnURu--24" value="&lt;span style=&quot;color: rgb(0, 0, 0);&quot;&gt;Time 12&lt;/span&gt;" style="swimlane;startSize=20;html=1;fillColor=#66FFFF;strokeColor=#FF3399;strokeWidth=2;shadow=1;swimlaneLine=1;" vertex="1" parent="8vf6xd73BegqSxqnURu--12">
                    <mxGeometry x="880" y="20" width="80" height="660" as="geometry"/>
                </mxCell>
                <mxCell id="8vf6xd73BegqSxqnURu--25" value="&lt;span style=&quot;color: rgb(0, 0, 0);&quot;&gt;Time 13&lt;/span&gt;" style="swimlane;startSize=20;html=1;fillColor=#66FFFF;strokeColor=#FF3399;strokeWidth=2;shadow=1;swimlaneLine=1;" vertex="1" parent="8vf6xd73BegqSxqnURu--12">
                    <mxGeometry x="960" y="20" width="80" height="660" as="geometry"/>
                </mxCell>
                <mxCell id="8vf6xd73BegqSxqnURu--26" value="&lt;span style=&quot;color: rgb(0, 0, 0);&quot;&gt;Time 14&lt;/span&gt;" style="swimlane;startSize=20;html=1;fillColor=#66FFFF;strokeColor=#FF3399;strokeWidth=2;shadow=1;swimlaneLine=1;" vertex="1" parent="8vf6xd73BegqSxqnURu--12">
                    <mxGeometry x="1040" y="20" width="80" height="660" as="geometry"/>
                </mxCell>
                <mxCell id="8vf6xd73BegqSxqnURu--27" value="&lt;span style=&quot;color: rgb(0, 0, 0);&quot;&gt;Time 15&lt;/span&gt;" style="swimlane;startSize=20;html=1;fillColor=#66FFFF;strokeColor=#FF3399;strokeWidth=2;shadow=1;swimlaneLine=1;" vertex="1" parent="8vf6xd73BegqSxqnURu--12">
                    <mxGeometry x="1120" y="20" width="80" height="660" as="geometry"/>
                </mxCell>
                <mxCell id="8vf6xd73BegqSxqnURu--28" value="" style="rounded=0;whiteSpace=wrap;html=1;fillColor=#66FFFF;strokeColor=#FF3399;strokeWidth=2;shadow=1;swimlaneLine=1;" vertex="1" parent="8vf6xd73BegqSxqnURu--1">
                    <mxGeometry x="-120" y="140" width="641" height="40" as="geometry"/>
                </mxCell>
                <mxCell id="8vf6xd73BegqSxqnURu--29" value="" style="rounded=0;whiteSpace=wrap;html=1;fillColor=#66FFFF;strokeColor=#FF3399;strokeWidth=2;shadow=1;swimlaneLine=1;" vertex="1" parent="8vf6xd73BegqSxqnURu--1">
                    <mxGeometry x="-40" y="220" width="641" height="40" as="geometry"/>
                </mxCell>
                <mxCell id="8vf6xd73BegqSxqnURu--30" value="" style="rounded=0;whiteSpace=wrap;html=1;fillColor=#66FFFF;strokeColor=#FF3399;strokeWidth=2;shadow=1;swimlaneLine=1;" vertex="1" parent="8vf6xd73BegqSxqnURu--1">
                    <mxGeometry x="40" y="300" width="561" height="40" as="geometry"/>
                </mxCell>
                <mxCell id="8vf6xd73BegqSxqnURu--31" value="" style="rounded=0;whiteSpace=wrap;html=1;fillColor=#66FFFF;strokeColor=#FF3399;strokeWidth=2;shadow=1;swimlaneLine=1;" vertex="1" parent="8vf6xd73BegqSxqnURu--1">
                    <mxGeometry x="40" y="380" width="880" height="40" as="geometry"/>
                </mxCell>
                <mxCell id="8vf6xd73BegqSxqnURu--32" value="" style="rounded=0;whiteSpace=wrap;html=1;fillColor=#66FFFF;strokeColor=#FF3399;strokeWidth=2;shadow=1;swimlaneLine=1;" vertex="1" parent="8vf6xd73BegqSxqnURu--1">
                    <mxGeometry x="80" y="460" width="880" height="40" as="geometry"/>
                </mxCell>
                <mxCell id="8vf6xd73BegqSxqnURu--33" value="" style="rounded=0;whiteSpace=wrap;html=1;fillColor=#66FFFF;strokeColor=#FF3399;strokeWidth=2;shadow=1;swimlaneLine=1;" vertex="1" parent="8vf6xd73BegqSxqnURu--1">
                    <mxGeometry x="120" y="540" width="280" height="40" as="geometry"/>
                </mxCell>
                <mxCell id="8vf6xd73BegqSxqnURu--35" value="" style="rounded=0;whiteSpace=wrap;html=1;fillColor=#66FFFF;strokeColor=#FF3399;strokeWidth=2;shadow=1;swimlaneLine=1;" vertex="1" parent="8vf6xd73BegqSxqnURu--1">
                    <mxGeometry x="760" y="620" width="280" height="40" as="geometry"/>
                </mxCell>
                <mxCell id="8vf6xd73BegqSxqnURu--36" value="" style="rounded=0;whiteSpace=wrap;html=1;fillColor=#66FFFF;strokeColor=#FF3399;strokeWidth=2;shadow=1;swimlaneLine=1;" vertex="1" parent="8vf6xd73BegqSxqnURu--1">
                    <mxGeometry x="840" y="700" width="200" height="40" as="geometry"/>
                </mxCell>
                <mxCell id="zQV-UrCumjIhoOORX_Nn-0" value="" style="rounded=0;whiteSpace=wrap;html=1;strokeWidth=2;shadow=1;swimlaneLine=1;glass=0;strokeColor=#FF3399;fillColor=#66FFFF;" vertex="1" parent="8vf6xd73BegqSxqnURu--1">
                    <mxGeometry x="400" y="540" width="280" height="40" as="geometry"/>
                </mxCell>
                <mxCell id="zQV-UrCumjIhoOORX_Nn-1" value="" style="rounded=0;whiteSpace=wrap;html=1;strokeWidth=2;shadow=1;swimlaneLine=1;glass=0;gradientColor=none;fillStyle=hatch;fillColor=#FF3399;strokeColor=#FF3399;" vertex="1" parent="8vf6xd73BegqSxqnURu--1">
                    <mxGeometry x="400" y="540" width="280" height="40" as="geometry"/>
                </mxCell>
                <mxCell id="8vf6xd73BegqSxqnURu--34" value="" style="rounded=0;whiteSpace=wrap;html=1;fillColor=#66FFFF;strokeColor=#FF3399;strokeWidth=2;shadow=1;swimlaneLine=1;" vertex="1" parent="8vf6xd73BegqSxqnURu--1">
                    <mxGeometry x="680" y="540" width="280" height="40" as="geometry"/>
                </mxCell>
            </root>
        </mxGraphModel>
    </diagram>
    <diagram name="BombPop" id="1oZuoCs7VIq2RYoMErAt">
        <mxGraphModel dx="2392" dy="938" grid="1" gridSize="10" guides="1" tooltips="1" connect="1" arrows="1" fold="1" page="0" pageScale="1" pageWidth="850" pageHeight="1100" math="0" shadow="0">
            <root>
                <mxCell id="q9uhM1WabSMjLZK-znUH-0"/>
                <mxCell id="q9uhM1WabSMjLZK-znUH-1" parent="q9uhM1WabSMjLZK-znUH-0"/>
                <mxCell id="q9uhM1WabSMjLZK-znUH-2" value="Pool" style="swimlane;childLayout=stackLayout;resizeParent=1;resizeParentMax=0;horizontal=1;startSize=20;horizontalStack=0;html=1;fillColor=#FF0000;strokeColor=#0000FF;strokeWidth=2;shadow=1;swimlaneLine=1;fontColor=#FFFFFF;" vertex="1" parent="q9uhM1WabSMjLZK-znUH-1">
                    <mxGeometry x="-180" y="80" width="1220" height="680" as="geometry">
                        <mxRectangle x="-180" y="80" width="60" height="30" as="alternateBounds"/>
                    </mxGeometry>
                </mxCell>
                <mxCell id="q9uhM1WabSMjLZK-znUH-3" value="" style="rounded=0;whiteSpace=wrap;html=1;fillColor=#FF0000;strokeColor=#0000FF;strokeWidth=2;shadow=1;swimlaneLine=1;fontColor=#FFFFFF;" vertex="1" parent="q9uhM1WabSMjLZK-znUH-2">
                    <mxGeometry y="20" width="1220" height="20" as="geometry"/>
                </mxCell>
                <mxCell id="q9uhM1WabSMjLZK-znUH-4" value="Task 1" style="swimlane;startSize=20;horizontal=0;html=1;fillColor=#FF0000;strokeColor=#0000FF;strokeWidth=2;shadow=1;swimlaneLine=1;fontColor=#FFFFFF;" vertex="1" parent="q9uhM1WabSMjLZK-znUH-2">
                    <mxGeometry y="40" width="1220" height="80" as="geometry">
                        <mxRectangle y="20" width="1210" height="30" as="alternateBounds"/>
                    </mxGeometry>
                </mxCell>
                <mxCell id="q9uhM1WabSMjLZK-znUH-5" value="Task 2" style="swimlane;startSize=20;horizontal=0;html=1;fillColor=#FF0000;strokeColor=#0000FF;strokeWidth=2;shadow=1;swimlaneLine=1;fontColor=#FFFFFF;" vertex="1" parent="q9uhM1WabSMjLZK-znUH-2">
                    <mxGeometry y="120" width="1220" height="80" as="geometry"/>
                </mxCell>
                <mxCell id="q9uhM1WabSMjLZK-znUH-6" value="Task 3" style="swimlane;startSize=20;horizontal=0;html=1;fillColor=#FF0000;strokeColor=#0000FF;strokeWidth=2;shadow=1;swimlaneLine=1;fontColor=#FFFFFF;" vertex="1" parent="q9uhM1WabSMjLZK-znUH-2">
                    <mxGeometry y="200" width="1220" height="80" as="geometry"/>
                </mxCell>
                <mxCell id="q9uhM1WabSMjLZK-znUH-7" value="Task 4" style="swimlane;startSize=20;horizontal=0;html=1;fillColor=#FF0000;strokeColor=#0000FF;strokeWidth=2;shadow=1;swimlaneLine=1;fontColor=#FFFFFF;" vertex="1" parent="q9uhM1WabSMjLZK-znUH-2">
                    <mxGeometry y="280" width="1220" height="80" as="geometry"/>
                </mxCell>
                <mxCell id="q9uhM1WabSMjLZK-znUH-8" value="Task 5" style="swimlane;startSize=20;horizontal=0;html=1;fillColor=#FF0000;strokeColor=#0000FF;strokeWidth=2;shadow=1;swimlaneLine=1;fontColor=#FFFFFF;" vertex="1" parent="q9uhM1WabSMjLZK-znUH-2">
                    <mxGeometry y="360" width="1220" height="80" as="geometry"/>
                </mxCell>
                <mxCell id="q9uhM1WabSMjLZK-znUH-9" value="Task 6" style="swimlane;startSize=20;horizontal=0;html=1;fillColor=#FF0000;strokeColor=#0000FF;strokeWidth=2;shadow=1;swimlaneLine=1;fontColor=#FFFFFF;" vertex="1" parent="q9uhM1WabSMjLZK-znUH-2">
                    <mxGeometry y="440" width="1220" height="80" as="geometry"/>
                </mxCell>
                <mxCell id="q9uhM1WabSMjLZK-znUH-10" value="Task 7" style="swimlane;startSize=20;horizontal=0;html=1;fillColor=#FF0000;strokeColor=#0000FF;strokeWidth=2;shadow=1;swimlaneLine=1;fontColor=#FFFFFF;" vertex="1" parent="q9uhM1WabSMjLZK-znUH-2">
                    <mxGeometry y="520" width="1220" height="80" as="geometry"/>
                </mxCell>
                <mxCell id="q9uhM1WabSMjLZK-znUH-11" value="Task 8" style="swimlane;startSize=20;horizontal=0;html=1;fillColor=#FF0000;strokeColor=#0000FF;strokeWidth=2;shadow=1;swimlaneLine=1;fontColor=#FFFFFF;" vertex="1" parent="q9uhM1WabSMjLZK-znUH-2">
                    <mxGeometry y="600" width="1220" height="80" as="geometry"/>
                </mxCell>
                <mxCell id="q9uhM1WabSMjLZK-znUH-12" value="Template Gantt Chart" style="swimlane;childLayout=stackLayout;resizeParent=1;resizeParentMax=0;startSize=20;html=1;gradientColor=none;swimlaneFillColor=none;swimlaneLine=1;glass=0;rounded=0;shadow=1;fillColor=#FF0000;strokeColor=#0000FF;strokeWidth=2;fontColor=#FFFFFF;" vertex="1" parent="q9uhM1WabSMjLZK-znUH-1">
                    <mxGeometry x="-160" y="80" width="1200" height="680" as="geometry"/>
                </mxCell>
                <mxCell id="q9uhM1WabSMjLZK-znUH-13" value="Time 1" style="swimlane;startSize=20;html=1;fillColor=#FF0000;strokeColor=#0000FF;strokeWidth=2;shadow=1;swimlaneLine=1;fontColor=#FFFFFF;" vertex="1" parent="q9uhM1WabSMjLZK-znUH-12">
                    <mxGeometry y="20" width="80" height="660" as="geometry"/>
                </mxCell>
                <mxCell id="q9uhM1WabSMjLZK-znUH-14" value="&lt;span style=&quot;&quot;&gt;&lt;font style=&quot;color: rgb(255, 255, 255);&quot;&gt;Time 2&lt;/font&gt;&lt;/span&gt;" style="swimlane;startSize=20;html=1;fillColor=#FF0000;strokeColor=#0000FF;strokeWidth=2;shadow=1;swimlaneLine=1;fontColor=#FFFFFF;" vertex="1" parent="q9uhM1WabSMjLZK-znUH-12">
                    <mxGeometry x="80" y="20" width="80" height="660" as="geometry"/>
                </mxCell>
                <mxCell id="q9uhM1WabSMjLZK-znUH-15" value="&lt;span style=&quot;&quot;&gt;&lt;font style=&quot;color: rgb(255, 255, 255);&quot;&gt;Time 3&lt;/font&gt;&lt;/span&gt;" style="swimlane;startSize=20;html=1;fillColor=#FF0000;strokeColor=#0000FF;strokeWidth=2;shadow=1;swimlaneLine=1;fontColor=#FFFFFF;" vertex="1" parent="q9uhM1WabSMjLZK-znUH-12">
                    <mxGeometry x="160" y="20" width="80" height="660" as="geometry"/>
                </mxCell>
                <mxCell id="q9uhM1WabSMjLZK-znUH-16" value="&lt;span style=&quot;&quot;&gt;&lt;font style=&quot;color: rgb(255, 255, 255);&quot;&gt;Time 4&lt;/font&gt;&lt;/span&gt;" style="swimlane;startSize=20;html=1;fillColor=#FF0000;strokeColor=#0000FF;strokeWidth=2;shadow=1;swimlaneLine=1;fontColor=#FFFFFF;" vertex="1" parent="q9uhM1WabSMjLZK-znUH-12">
                    <mxGeometry x="240" y="20" width="80" height="660" as="geometry"/>
                </mxCell>
                <mxCell id="q9uhM1WabSMjLZK-znUH-17" value="&lt;span style=&quot;&quot;&gt;&lt;font style=&quot;color: rgb(255, 255, 255);&quot;&gt;Time 5&lt;/font&gt;&lt;/span&gt;" style="swimlane;startSize=20;html=1;fillColor=#FF0000;strokeColor=#0000FF;strokeWidth=2;shadow=1;swimlaneLine=1;fontColor=#FFFFFF;" vertex="1" parent="q9uhM1WabSMjLZK-znUH-12">
                    <mxGeometry x="320" y="20" width="80" height="660" as="geometry"/>
                </mxCell>
                <mxCell id="q9uhM1WabSMjLZK-znUH-18" value="&lt;span style=&quot;&quot;&gt;&lt;font style=&quot;color: rgb(255, 255, 255);&quot;&gt;Time 6&lt;/font&gt;&lt;/span&gt;" style="swimlane;startSize=20;html=1;fillColor=#FF0000;strokeColor=#0000FF;strokeWidth=2;shadow=1;swimlaneLine=1;fontColor=#FFFFFF;" vertex="1" parent="q9uhM1WabSMjLZK-znUH-12">
                    <mxGeometry x="400" y="20" width="80" height="660" as="geometry"/>
                </mxCell>
                <mxCell id="q9uhM1WabSMjLZK-znUH-19" value="&lt;span style=&quot;&quot;&gt;&lt;font style=&quot;color: rgb(255, 255, 255);&quot;&gt;Time 7&lt;/font&gt;&lt;/span&gt;" style="swimlane;startSize=20;html=1;fillColor=#FF0000;strokeColor=#0000FF;strokeWidth=2;shadow=1;swimlaneLine=1;fontColor=#FFFFFF;" vertex="1" parent="q9uhM1WabSMjLZK-znUH-12">
                    <mxGeometry x="480" y="20" width="80" height="660" as="geometry"/>
                </mxCell>
                <mxCell id="q9uhM1WabSMjLZK-znUH-20" value="&lt;span style=&quot;&quot;&gt;&lt;font style=&quot;color: rgb(255, 255, 255);&quot;&gt;Time 8&lt;/font&gt;&lt;/span&gt;" style="swimlane;startSize=20;html=1;fillColor=#FF0000;strokeColor=#0000FF;strokeWidth=2;shadow=1;swimlaneLine=1;fontColor=#FFFFFF;" vertex="1" parent="q9uhM1WabSMjLZK-znUH-12">
                    <mxGeometry x="560" y="20" width="80" height="660" as="geometry"/>
                </mxCell>
                <mxCell id="q9uhM1WabSMjLZK-znUH-21" value="&lt;span style=&quot;&quot;&gt;&lt;font style=&quot;color: rgb(255, 255, 255);&quot;&gt;Time 9&lt;/font&gt;&lt;/span&gt;" style="swimlane;startSize=20;html=1;fillColor=#FF0000;strokeColor=#0000FF;strokeWidth=2;shadow=1;swimlaneLine=1;fontColor=#FFFFFF;" vertex="1" parent="q9uhM1WabSMjLZK-znUH-12">
                    <mxGeometry x="640" y="20" width="80" height="660" as="geometry"/>
                </mxCell>
                <mxCell id="q9uhM1WabSMjLZK-znUH-22" value="&lt;span style=&quot;&quot;&gt;&lt;font style=&quot;color: rgb(255, 255, 255);&quot;&gt;Time 10&lt;/font&gt;&lt;/span&gt;" style="swimlane;startSize=20;html=1;fillColor=#FF0000;strokeColor=#0000FF;strokeWidth=2;shadow=1;swimlaneLine=1;fontColor=#FFFFFF;" vertex="1" parent="q9uhM1WabSMjLZK-znUH-12">
                    <mxGeometry x="720" y="20" width="80" height="660" as="geometry"/>
                </mxCell>
                <mxCell id="q9uhM1WabSMjLZK-znUH-23" value="&lt;span style=&quot;&quot;&gt;&lt;font style=&quot;color: rgb(255, 255, 255);&quot;&gt;Time 11&lt;/font&gt;&lt;/span&gt;" style="swimlane;startSize=20;html=1;fillColor=#FF0000;strokeColor=#0000FF;strokeWidth=2;shadow=1;swimlaneLine=1;fontColor=#FFFFFF;" vertex="1" parent="q9uhM1WabSMjLZK-znUH-12">
                    <mxGeometry x="800" y="20" width="80" height="660" as="geometry"/>
                </mxCell>
                <mxCell id="q9uhM1WabSMjLZK-znUH-24" value="&lt;span style=&quot;&quot;&gt;&lt;font style=&quot;color: rgb(255, 255, 255);&quot;&gt;Time 12&lt;/font&gt;&lt;/span&gt;" style="swimlane;startSize=20;html=1;fillColor=#FF0000;strokeColor=#0000FF;strokeWidth=2;shadow=1;swimlaneLine=1;fontColor=#FFFFFF;" vertex="1" parent="q9uhM1WabSMjLZK-znUH-12">
                    <mxGeometry x="880" y="20" width="80" height="660" as="geometry"/>
                </mxCell>
                <mxCell id="q9uhM1WabSMjLZK-znUH-25" value="&lt;span style=&quot;&quot;&gt;&lt;font style=&quot;color: rgb(255, 255, 255);&quot;&gt;Time 13&lt;/font&gt;&lt;/span&gt;" style="swimlane;startSize=20;html=1;fillColor=#FF0000;strokeColor=#0000FF;strokeWidth=2;shadow=1;swimlaneLine=1;fontColor=#FFFFFF;" vertex="1" parent="q9uhM1WabSMjLZK-znUH-12">
                    <mxGeometry x="960" y="20" width="80" height="660" as="geometry"/>
                </mxCell>
                <mxCell id="q9uhM1WabSMjLZK-znUH-26" value="&lt;span style=&quot;&quot;&gt;&lt;font style=&quot;color: rgb(255, 255, 255);&quot;&gt;Time 14&lt;/font&gt;&lt;/span&gt;" style="swimlane;startSize=20;html=1;fillColor=#FF0000;strokeColor=#0000FF;strokeWidth=2;shadow=1;swimlaneLine=1;fontColor=#FFFFFF;" vertex="1" parent="q9uhM1WabSMjLZK-znUH-12">
                    <mxGeometry x="1040" y="20" width="80" height="660" as="geometry"/>
                </mxCell>
                <mxCell id="q9uhM1WabSMjLZK-znUH-27" value="&lt;span style=&quot;&quot;&gt;&lt;font style=&quot;color: rgb(255, 255, 255);&quot;&gt;Time 15&lt;/font&gt;&lt;/span&gt;" style="swimlane;startSize=20;html=1;fillColor=#FF0000;strokeColor=#0000FF;strokeWidth=2;shadow=1;swimlaneLine=1;fontColor=#FFFFFF;" vertex="1" parent="q9uhM1WabSMjLZK-znUH-12">
                    <mxGeometry x="1120" y="20" width="80" height="660" as="geometry"/>
                </mxCell>
                <mxCell id="q9uhM1WabSMjLZK-znUH-28" value="" style="rounded=0;whiteSpace=wrap;html=1;fillColor=#FF0000;strokeColor=#0000FF;strokeWidth=2;shadow=1;swimlaneLine=1;fontColor=#FFFFFF;" vertex="1" parent="q9uhM1WabSMjLZK-znUH-1">
                    <mxGeometry x="-120" y="140" width="641" height="40" as="geometry"/>
                </mxCell>
                <mxCell id="q9uhM1WabSMjLZK-znUH-29" value="" style="rounded=0;whiteSpace=wrap;html=1;fillColor=#FF0000;strokeColor=#0000FF;strokeWidth=2;shadow=1;swimlaneLine=1;fontColor=#FFFFFF;" vertex="1" parent="q9uhM1WabSMjLZK-znUH-1">
                    <mxGeometry x="-40" y="220" width="641" height="40" as="geometry"/>
                </mxCell>
                <mxCell id="q9uhM1WabSMjLZK-znUH-30" value="" style="rounded=0;whiteSpace=wrap;html=1;fillColor=#FF0000;strokeColor=#0000FF;strokeWidth=2;shadow=1;swimlaneLine=1;fontColor=#FFFFFF;" vertex="1" parent="q9uhM1WabSMjLZK-znUH-1">
                    <mxGeometry x="40" y="300" width="561" height="40" as="geometry"/>
                </mxCell>
                <mxCell id="q9uhM1WabSMjLZK-znUH-31" value="" style="rounded=0;whiteSpace=wrap;html=1;fillColor=#FF0000;strokeColor=#0000FF;strokeWidth=2;shadow=1;swimlaneLine=1;fontColor=#FFFFFF;" vertex="1" parent="q9uhM1WabSMjLZK-znUH-1">
                    <mxGeometry x="40" y="380" width="880" height="40" as="geometry"/>
                </mxCell>
                <mxCell id="q9uhM1WabSMjLZK-znUH-32" value="" style="rounded=0;whiteSpace=wrap;html=1;fillColor=#FF0000;strokeColor=#0000FF;strokeWidth=2;shadow=1;swimlaneLine=1;fontColor=#FFFFFF;" vertex="1" parent="q9uhM1WabSMjLZK-znUH-1">
                    <mxGeometry x="80" y="460" width="880" height="40" as="geometry"/>
                </mxCell>
                <mxCell id="q9uhM1WabSMjLZK-znUH-33" value="" style="rounded=0;whiteSpace=wrap;html=1;fillColor=#FF0000;strokeColor=#0000FF;strokeWidth=2;shadow=1;swimlaneLine=1;fontColor=#FFFFFF;" vertex="1" parent="q9uhM1WabSMjLZK-znUH-1">
                    <mxGeometry x="120" y="540" width="280" height="40" as="geometry"/>
                </mxCell>
                <mxCell id="q9uhM1WabSMjLZK-znUH-35" value="" style="rounded=0;whiteSpace=wrap;html=1;fillColor=#FF0000;strokeColor=#0000FF;strokeWidth=2;shadow=1;swimlaneLine=1;fontColor=#FFFFFF;" vertex="1" parent="q9uhM1WabSMjLZK-znUH-1">
                    <mxGeometry x="760" y="620" width="280" height="40" as="geometry"/>
                </mxCell>
                <mxCell id="q9uhM1WabSMjLZK-znUH-36" value="" style="rounded=0;whiteSpace=wrap;html=1;fillColor=#FF0000;strokeColor=#0000FF;strokeWidth=2;shadow=1;swimlaneLine=1;fontColor=#FFFFFF;" vertex="1" parent="q9uhM1WabSMjLZK-znUH-1">
                    <mxGeometry x="840" y="700" width="200" height="40" as="geometry"/>
                </mxCell>
                <mxCell id="nBZGziw5mu_a7crAa0SR-0" value="" style="rounded=0;whiteSpace=wrap;html=1;strokeWidth=2;shadow=1;swimlaneLine=1;glass=0;strokeColor=#0000FF;fillColor=#FF0000;" vertex="1" parent="q9uhM1WabSMjLZK-znUH-1">
                    <mxGeometry x="400" y="540" width="280" height="40" as="geometry"/>
                </mxCell>
                <mxCell id="nBZGziw5mu_a7crAa0SR-1" value="" style="rounded=0;whiteSpace=wrap;html=1;strokeWidth=2;shadow=1;swimlaneLine=1;glass=0;gradientColor=none;fillStyle=hatch;fillColor=#0000FF;strokeColor=#0000FF;" vertex="1" parent="q9uhM1WabSMjLZK-znUH-1">
                    <mxGeometry x="400" y="540" width="280" height="40" as="geometry"/>
                </mxCell>
                <mxCell id="q9uhM1WabSMjLZK-znUH-34" value="" style="rounded=0;whiteSpace=wrap;html=1;fillColor=#FF0000;strokeColor=#0000FF;strokeWidth=2;shadow=1;swimlaneLine=1;fontColor=#FFFFFF;" vertex="1" parent="q9uhM1WabSMjLZK-znUH-1">
                    <mxGeometry x="680" y="540" width="280" height="40" as="geometry"/>
                </mxCell>
            </root>
        </mxGraphModel>
    </diagram>
    <diagram id="0CmlZvmoppSdjgtJZwxT" name="Bland">
        <mxGraphModel dx="2543" dy="797" grid="1" gridSize="10" guides="1" tooltips="1" connect="1" arrows="1" fold="1" page="1" pageScale="1" pageWidth="850" pageHeight="1100" math="0" shadow="0">
            <root>
                <mxCell id="0"/>
                <mxCell id="1" parent="0"/>
                <mxCell id="2" value="Pool" style="swimlane;childLayout=stackLayout;resizeParent=1;resizeParentMax=0;horizontal=1;startSize=20;horizontalStack=0;html=1;strokeWidth=2;shadow=1;swimlaneLine=1;glass=0;rounded=0;" vertex="1" parent="1">
                    <mxGeometry x="-180" y="80" width="1220" height="680" as="geometry">
                        <mxRectangle x="-180" y="80" width="60" height="30" as="alternateBounds"/>
                    </mxGeometry>
                </mxCell>
                <mxCell id="15" value="" style="rounded=0;whiteSpace=wrap;html=1;strokeWidth=2;shadow=1;swimlaneLine=1;glass=0;" vertex="1" parent="2">
                    <mxGeometry y="20" width="1220" height="20" as="geometry"/>
                </mxCell>
                <mxCell id="10" value="Task 1" style="swimlane;startSize=20;horizontal=0;html=1;strokeWidth=2;shadow=1;swimlaneLine=1;glass=0;rounded=0;" vertex="1" parent="2">
                    <mxGeometry y="40" width="1220" height="80" as="geometry">
                        <mxRectangle y="20" width="1210" height="30" as="alternateBounds"/>
                    </mxGeometry>
                </mxCell>
                <mxCell id="9" value="Task 2" style="swimlane;startSize=20;horizontal=0;html=1;strokeWidth=2;shadow=1;swimlaneLine=1;glass=0;rounded=0;" vertex="1" parent="2">
                    <mxGeometry y="120" width="1220" height="80" as="geometry"/>
                </mxCell>
                <mxCell id="8" value="Task 3" style="swimlane;startSize=20;horizontal=0;html=1;strokeWidth=2;shadow=1;swimlaneLine=1;glass=0;rounded=0;" vertex="1" parent="2">
                    <mxGeometry y="200" width="1220" height="80" as="geometry"/>
                </mxCell>
                <mxCell id="7" value="Task 4" style="swimlane;startSize=20;horizontal=0;html=1;strokeWidth=2;shadow=1;swimlaneLine=1;glass=0;rounded=0;" vertex="1" parent="2">
                    <mxGeometry y="280" width="1220" height="80" as="geometry"/>
                </mxCell>
                <mxCell id="6" value="Task 5" style="swimlane;startSize=20;horizontal=0;html=1;strokeWidth=2;shadow=1;swimlaneLine=1;glass=0;rounded=0;" vertex="1" parent="2">
                    <mxGeometry y="360" width="1220" height="80" as="geometry"/>
                </mxCell>
                <mxCell id="3" value="Task 6" style="swimlane;startSize=20;horizontal=0;html=1;strokeWidth=2;shadow=1;swimlaneLine=1;glass=0;rounded=0;" vertex="1" parent="2">
                    <mxGeometry y="440" width="1220" height="80" as="geometry"/>
                </mxCell>
                <mxCell id="4" value="Task 7" style="swimlane;startSize=20;horizontal=0;html=1;strokeWidth=2;shadow=1;swimlaneLine=1;glass=0;rounded=0;" vertex="1" parent="2">
                    <mxGeometry y="520" width="1220" height="80" as="geometry"/>
                </mxCell>
                <mxCell id="5" value="Task 8" style="swimlane;startSize=20;horizontal=0;html=1;strokeWidth=2;shadow=1;swimlaneLine=1;glass=0;rounded=0;" vertex="1" parent="2">
                    <mxGeometry y="600" width="1220" height="80" as="geometry"/>
                </mxCell>
                <mxCell id="11" value="Template Gantt Chart" style="swimlane;childLayout=stackLayout;resizeParent=1;resizeParentMax=0;startSize=20;html=1;strokeWidth=2;shadow=1;swimlaneLine=1;glass=0;rounded=0;" vertex="1" parent="1">
                    <mxGeometry x="-160" y="80" width="1200" height="680" as="geometry"/>
                </mxCell>
                <mxCell id="12" value="Time 1" style="swimlane;startSize=20;html=1;strokeWidth=2;shadow=1;swimlaneLine=1;glass=0;rounded=0;" vertex="1" parent="11">
                    <mxGeometry y="20" width="80" height="660" as="geometry"/>
                </mxCell>
                <mxCell id="13" value="&lt;span style=&quot;color: rgb(0, 0, 0);&quot;&gt;Time 2&lt;/span&gt;" style="swimlane;startSize=20;html=1;strokeWidth=2;shadow=1;swimlaneLine=1;glass=0;rounded=0;" vertex="1" parent="11">
                    <mxGeometry x="80" y="20" width="80" height="660" as="geometry"/>
                </mxCell>
                <mxCell id="14" value="&lt;span style=&quot;color: rgb(0, 0, 0);&quot;&gt;Time 3&lt;/span&gt;" style="swimlane;startSize=20;html=1;strokeWidth=2;shadow=1;swimlaneLine=1;glass=0;rounded=0;" vertex="1" parent="11">
                    <mxGeometry x="160" y="20" width="80" height="660" as="geometry"/>
                </mxCell>
                <mxCell id="19" value="&lt;span style=&quot;color: rgb(0, 0, 0);&quot;&gt;Time 4&lt;/span&gt;" style="swimlane;startSize=20;html=1;strokeWidth=2;shadow=1;swimlaneLine=1;glass=0;rounded=0;" vertex="1" parent="11">
                    <mxGeometry x="240" y="20" width="80" height="660" as="geometry"/>
                </mxCell>
                <mxCell id="22" value="&lt;span style=&quot;color: rgb(0, 0, 0);&quot;&gt;Time 5&lt;/span&gt;" style="swimlane;startSize=20;html=1;strokeWidth=2;shadow=1;swimlaneLine=1;glass=0;rounded=0;" vertex="1" parent="11">
                    <mxGeometry x="320" y="20" width="80" height="660" as="geometry"/>
                </mxCell>
                <mxCell id="21" value="&lt;span style=&quot;color: rgb(0, 0, 0);&quot;&gt;Time 6&lt;/span&gt;" style="swimlane;startSize=20;html=1;strokeWidth=2;shadow=1;swimlaneLine=1;glass=0;rounded=0;" vertex="1" parent="11">
                    <mxGeometry x="400" y="20" width="80" height="660" as="geometry"/>
                </mxCell>
                <mxCell id="20" value="&lt;span style=&quot;color: rgb(0, 0, 0);&quot;&gt;Time 7&lt;/span&gt;" style="swimlane;startSize=20;html=1;strokeWidth=2;shadow=1;swimlaneLine=1;glass=0;rounded=0;" vertex="1" parent="11">
                    <mxGeometry x="480" y="20" width="80" height="660" as="geometry"/>
                </mxCell>
                <mxCell id="18" value="&lt;span style=&quot;color: rgb(0, 0, 0);&quot;&gt;Time 8&lt;/span&gt;" style="swimlane;startSize=20;html=1;strokeWidth=2;shadow=1;swimlaneLine=1;glass=0;rounded=0;" vertex="1" parent="11">
                    <mxGeometry x="560" y="20" width="80" height="660" as="geometry"/>
                </mxCell>
                <mxCell id="17" value="&lt;span style=&quot;color: rgb(0, 0, 0);&quot;&gt;Time 9&lt;/span&gt;" style="swimlane;startSize=20;html=1;strokeWidth=2;shadow=1;swimlaneLine=1;glass=0;rounded=0;" vertex="1" parent="11">
                    <mxGeometry x="640" y="20" width="80" height="660" as="geometry"/>
                </mxCell>
                <mxCell id="23" value="&lt;span style=&quot;color: rgb(0, 0, 0);&quot;&gt;Time 10&lt;/span&gt;" style="swimlane;startSize=20;html=1;strokeWidth=2;shadow=1;swimlaneLine=1;glass=0;rounded=0;" vertex="1" parent="11">
                    <mxGeometry x="720" y="20" width="80" height="660" as="geometry"/>
                </mxCell>
                <mxCell id="27" value="&lt;span style=&quot;color: rgb(0, 0, 0);&quot;&gt;Time 11&lt;/span&gt;" style="swimlane;startSize=20;html=1;strokeWidth=2;shadow=1;swimlaneLine=1;glass=0;rounded=0;" vertex="1" parent="11">
                    <mxGeometry x="800" y="20" width="80" height="660" as="geometry"/>
                </mxCell>
                <mxCell id="26" value="&lt;span style=&quot;color: rgb(0, 0, 0);&quot;&gt;Time 12&lt;/span&gt;" style="swimlane;startSize=20;html=1;strokeWidth=2;shadow=1;swimlaneLine=1;glass=0;rounded=0;" vertex="1" parent="11">
                    <mxGeometry x="880" y="20" width="80" height="660" as="geometry"/>
                </mxCell>
                <mxCell id="25" value="&lt;span style=&quot;color: rgb(0, 0, 0);&quot;&gt;Time 13&lt;/span&gt;" style="swimlane;startSize=20;html=1;strokeWidth=2;shadow=1;swimlaneLine=1;glass=0;rounded=0;" vertex="1" parent="11">
                    <mxGeometry x="960" y="20" width="80" height="660" as="geometry"/>
                </mxCell>
                <mxCell id="24" value="&lt;span style=&quot;color: rgb(0, 0, 0);&quot;&gt;Time 14&lt;/span&gt;" style="swimlane;startSize=20;html=1;strokeWidth=2;shadow=1;swimlaneLine=1;glass=0;rounded=0;" vertex="1" parent="11">
                    <mxGeometry x="1040" y="20" width="80" height="660" as="geometry"/>
                </mxCell>
                <mxCell id="16" value="&lt;span style=&quot;color: rgb(0, 0, 0);&quot;&gt;Time 15&lt;/span&gt;" style="swimlane;startSize=20;html=1;strokeWidth=2;shadow=1;swimlaneLine=1;glass=0;rounded=0;" vertex="1" parent="11">
                    <mxGeometry x="1120" y="20" width="80" height="660" as="geometry"/>
                </mxCell>
                <mxCell id="29" value="" style="rounded=0;whiteSpace=wrap;html=1;strokeWidth=2;shadow=1;swimlaneLine=1;glass=0;" vertex="1" parent="1">
                    <mxGeometry x="-120" y="140" width="641" height="40" as="geometry"/>
                </mxCell>
                <mxCell id="30" value="" style="rounded=0;whiteSpace=wrap;html=1;strokeWidth=2;shadow=1;swimlaneLine=1;glass=0;" vertex="1" parent="1">
                    <mxGeometry x="-40" y="220" width="641" height="40" as="geometry"/>
                </mxCell>
                <mxCell id="31" value="" style="rounded=0;whiteSpace=wrap;html=1;strokeWidth=2;shadow=1;swimlaneLine=1;glass=0;" vertex="1" parent="1">
                    <mxGeometry x="40" y="300" width="561" height="40" as="geometry"/>
                </mxCell>
                <mxCell id="32" value="" style="rounded=0;whiteSpace=wrap;html=1;strokeWidth=2;shadow=1;swimlaneLine=1;glass=0;" vertex="1" parent="1">
                    <mxGeometry x="40" y="380" width="880" height="40" as="geometry"/>
                </mxCell>
                <mxCell id="33" value="" style="rounded=0;whiteSpace=wrap;html=1;strokeWidth=2;shadow=1;swimlaneLine=1;glass=0;" vertex="1" parent="1">
                    <mxGeometry x="80" y="460" width="880" height="40" as="geometry"/>
                </mxCell>
                <mxCell id="34" value="" style="rounded=0;whiteSpace=wrap;html=1;strokeWidth=2;shadow=1;swimlaneLine=1;glass=0;" vertex="1" parent="1">
                    <mxGeometry x="120" y="540" width="280" height="40" as="geometry"/>
                </mxCell>
                <mxCell id="36" value="" style="rounded=0;whiteSpace=wrap;html=1;strokeWidth=2;shadow=1;swimlaneLine=1;glass=0;" vertex="1" parent="1">
                    <mxGeometry x="760" y="620" width="280" height="40" as="geometry"/>
                </mxCell>
                <mxCell id="37" value="" style="rounded=0;whiteSpace=wrap;html=1;strokeWidth=2;shadow=1;swimlaneLine=1;glass=0;" vertex="1" parent="1">
                    <mxGeometry x="840" y="700" width="200" height="40" as="geometry"/>
                </mxCell>
                <mxCell id="ihScQmTDZhQc4jHq_hjH-38" value="" style="rounded=0;whiteSpace=wrap;html=1;strokeWidth=2;shadow=1;swimlaneLine=1;glass=0;" vertex="1" parent="1">
                    <mxGeometry x="400" y="540" width="280" height="40" as="geometry"/>
                </mxCell>
                <mxCell id="ihScQmTDZhQc4jHq_hjH-37" value="" style="rounded=0;whiteSpace=wrap;html=1;strokeWidth=2;shadow=1;swimlaneLine=1;glass=0;gradientColor=none;fillStyle=hatch;fillColor=#000000;" vertex="1" parent="1">
                    <mxGeometry x="400" y="540" width="280" height="40" as="geometry"/>
                </mxCell>
                <mxCell id="35" value="" style="rounded=0;whiteSpace=wrap;html=1;strokeWidth=2;shadow=1;swimlaneLine=1;glass=0;" vertex="1" parent="1">
                    <mxGeometry x="680" y="540" width="280" height="40" as="geometry"/>
                </mxCell>
            </root>
        </mxGraphModel>
    </diagram>
</mxfile>